<?xml version="1.0" standalone="no"?>
<!DOCTYPE svg PUBLIC "-//W3C//DTD SVG 1.1//EN" "http://www.w3.org/Graphics/SVG/1.1/DTD/svg11.dtd" >
<!--
2013-9-30: Created.
-->
<svg>
<metadata>
Created by iconfont
</metadata>
<defs>

<font id="myAnticon" horiz-adv-x="1024" >
  <font-face
    font-family="myAnticon"
    font-weight="500"
    font-stretch="normal"
    units-per-em="1024"
    ascent="896"
    descent="-128"
  />
    <missing-glyph />
    
    <glyph glyph-name="unie123" unicode="&#45981;" d="M512 829.984q18.016 0 30.336-12.32l213.344-213.344q12.32-12.32 12.32-30.336 0-18.336-12.16-30.496t-30.496-12.16q-18.016 0-30.336 12.32l-140.32 140.672 0-494.336q0-17.664-12.512-30.176t-30.176-12.512-30.176 12.512-12.512 30.176l0 494.336-140.32-140.672q-12.992-12.32-30.336-12.32-17.664 0-30.176 12.512t-12.512 30.176q0 17.344 12.32 30.336l213.344 213.344q12.32 12.32 30.336 12.32zM938.656 232.67200000000003q17.664 0 30.176-12.512t12.512-30.176l0-170.656q0-53.344-36.992-90.336-37.664-37.664-90.016-37.664l-683.68 0q-52.32 0-90.656 37.344-37.344 38.336-37.344 90.656l0 170.656q0 17.664 12.512 30.176t30.176 12.512 30.176-12.512 12.512-30.176l0-170.656q0-17.664 12.512-30.176t30.176-12.512l683.68 0q17.344 0 29.504 12.512t12.16 30.176l0 170.656q0 17.664 12.512 30.176t30.176 12.512z"  horiz-adv-x="1024" />

    
    <glyph glyph-name="tongguo" unicode="&#46189;" d="M512.000512 831.023126c-246.902296 0-447.023126-200.082968-447.023126-447.02108 0-246.86955 200.12083-447.02415 447.023126-447.02415 246.866481 0 447.02108 200.154599 447.02108 447.02415C959.021591 630.9391350000001 758.866992 831.023126 512.000512 831.023126L512.000512 831.023126zM790.551622 493.756753L477.73101 192.10348199999999c-4.183276-4.184299-8.840342-7.42204-13.859659-9.860579-19.643386-13.967106-47.14781-12.221346-64.753793 5.387707l-134.346801 134.38057c-19.646456 19.643386-19.646456 51.477418 0 71.086012 19.643386 19.716041 51.474348 19.716041 71.117734 0l100.841709-100.806917 282.70164 272.549419c19.608593 19.681248 51.477418 19.681248 71.119781 0C810.193984 545.230078 810.193984 513.365346 790.551622 493.756753L790.551622 493.756753zM790.551622 493.756753"  horiz-adv-x="1024" />

    
    <glyph glyph-name="bingzhuangtu" unicode="&#45919;" d="M546.133333 418.133333L546.133333 896C810.052267 896 1024 682.052267 1024 418.133333L546.133333 418.133333ZM887.466667 281.6L885.742933 281.6C868.2496 52.53120000000001 677.2736-128 443.733333-128 198.673067-128 0 70.67306699999995 0 315.733333 0 560.810667 198.673067 759.466667 443.733333 759.466667 455.253333 759.466667 466.568533 758.613333 477.866667 757.742933L477.866667 691.2 477.866667 689.476267 477.866667 349.866667 887.466667 349.866667 887.466667 281.6ZM477.866667 281.6L409.6 281.6 409.6 349.866667 409.6 689.476267C218.248533 672.2048 68.266667 511.573333 68.266667 315.733333 68.266667 108.373333 236.373333-59.733333000000016 443.733333-59.733333000000016 639.573333-59.733333000000016 800.2048 90.24853299999995 817.476267 281.6L477.866667 281.6Z"  horiz-adv-x="1024" />

    
    <glyph glyph-name="download" unicode="&#46110;" d="M915.877979-22.701791999999955L108.119975-22.701791999999955c-12.046361 0-21.792329 9.766434-21.792329 21.793352l0 42.831504c0 12.025894 9.745968 21.770839 21.792329 21.770839l807.758004 0c12.046361 0 21.793352-9.744945 21.793352-21.770839l0-42.831504C937.671331-12.935357999999951 927.925363-22.701791999999955 915.877979-22.701791999999955zM535.109836 111.44341699999995c-6.108115-6.086625-14.934131-7.612375-22.50455-4.832052-7.570419-2.781346-16.396435-1.255597-22.503527 4.832052L217.545176 384.020466c-8.365528 8.366551-8.365528 21.938662 0 30.305213l30.283724 30.284747c8.365528 8.365528 21.918195 8.365528 30.284747 0l191.743022-191.764512L469.856669 769.975748c0 11.461029 9.28548 20.726044 20.74651 20.726044l42.833551 0c11.418051 0 20.704554-9.265014 20.704554-20.726044l0-518.323009 192.95564 192.957687c8.367575 8.365528 21.919219 8.365528 30.28577 0l30.283724-30.284747c8.366551-8.365528 8.366551-21.938662 0-30.305213L535.109836 111.44341699999995z"  horiz-adv-x="1024" />

    
    <glyph glyph-name="chakan" unicode="&#46154;" d="M509.536 35.168000000000006C277.024 47.10400000000004 106.24 153.664 3.84 364.928c-5.312 10.976-4.928 28.704 0.064 40.128C158.784 753.792 617.056 843.616 894.176 580.352c51.904-49.28 92.096-106.464 123.328-170.592 8.576-17.44 8.736-32.384 0-49.728C912.352 151.77599999999995 742.176 46.01599999999996 509.536 35.168000000000006zM507.424 665.856C319.712 657.6 175.776 573.184 80.032 407.104c-10.016-17.376-8.256-30.112 0.768-45.664 96.224-165.376 240.032-255.968 431.008-255.712 190.912 0.32 334.432 91.232 430.4 256.832 9.696 16.704 8.672 29.792-0.64 45.792C845.312 573.7919999999999 701.632 658.72 507.424 665.856zM696.064 381.72799999999995c-2.112-102.752-88.192-186.304-188-182.816-102.976 3.648-186.016 89.44-183.04 188.992 3.104 104.192 88 184.512 192.128 181.824C618.176 567.04 698.176 482.976 696.064 381.72799999999995zM510.784 267.744c64.576-0.256 118.656 53.984 117.888 118.272-0.672 62.624-54.688 116.416-117.28 116.704-62.656 0.352-116.384-52.832-117.28-116.16C393.216 321.53599999999994 445.728 267.93600000000004 510.784 267.744z"  horiz-adv-x="1024" />

    
    <glyph glyph-name="shaixuan" unicode="&#45946;" d="M624.64-106.83733299999994c-21.162667 0-37.546667 17.066667-37.546667 38.229333L587.093333 500.053333c0 9.557333 1.365333 20.48 7.509333 27.306667l245.077333 279.893333L172.714667 807.253333l247.808-279.893333c6.144-6.826667 9.557333-17.749333 9.557333-27.306667l0-342.016 60.757333-48.469333c16.384-12.970667 19.114667-36.864 5.461333-53.248-12.970667-16.384-36.864-19.114667-53.248-5.461333l-77.824 60.074667c-8.874667 7.509333-17.066667 17.749333-17.066667 29.354667L348.16 485.717333 56.661333 816.128C47.104 827.733333 45.738667 841.386667 51.882667 855.04c6.144 13.653333 21.162667 20.48 36.181333 20.48l836.949333 0c15.018667 0 28.672-6.826667 34.816-20.48 6.144-13.653333 5.461333-28.672-4.778667-39.594667L662.186667 485.717333l0-554.325333C662.186667-89.770667 645.802667-106.83733299999994 624.64-106.83733299999994L624.64-106.83733299999994z"  horiz-adv-x="1024" />

    
    <glyph glyph-name="yanshou" unicode="&#45724;" d="M727.5 480.9C563.7 480.9 431 348.5 431 185.10000000000002c0-163.3 132.8-295.8 296.5-295.8 163.8 0 296.5 132.4 296.5 295.8S891.2 480.9 727.5 480.9zM903.4 249.39999999999998l-193-205.5c-5.4-5.8-13-9.1-20.9-9.2-0.1 0-0.2 0-0.3 0-7.8 0-15.3 3.1-20.8 8.7L556.6 157.79999999999995c-11.2 11.4-11 29.8 0.5 40.9 11.5 11.2 29.9 10.9 41-0.5l90.6-92.6L861 289c11 11.7 29.3 12.3 41 1.3C913.7 279.4 914.3 261.1 903.4 249.39999999999998zM226.9 849.7L226.9 749.8 226.9 849.7ZM226.9 720.9c-16 0-29 13-29 29L197.9 849.7c0 16 13 29 29 29s29-13 29-29l0-99.9C256 733.8 243 720.9 226.9 720.9zM401.9 849.7L401.9 749.8 401.9 849.7ZM401.9 720.9c-16 0-29 13-29 29L372.9 849.7c0 16 13 29 29 29s29-13 29-29l0-99.9C430.9 733.8 417.9 720.9 401.9 720.9zM577.6 849.7L577.6 749.8 577.6 849.7ZM577.6 720.9c-16 0-29 13-29 29L548.6 849.7c0 16 13 29 29 29s29-13 29-29l0-99.9C606.6 733.8 593.6 720.9 577.6 720.9zM341.5 208.5c0 194 157.7 351.4 352.3 351.4 38.4 0 75.4-6.2 110-17.5l0 219c0 29.5-24.4 53.4-54.6 53.4L648.4 814.8l0-64.9c0-38.4-31.2-69.5-69.7-69.5S509 711.5 509 749.9L509 814.7l-37.5 0 0-64.9c0-38.4-31.2-69.5-69.7-69.5s-69.7 31.1-69.7 69.5L332.1 814.7l-36.8 0 0-64.9c0-38.4-31.2-69.5-69.7-69.5s-69.7 31.1-69.7 69.5L155.9 814.7 54.6 814.7C24.4 814.7 0 790.8 0 761.4l0-788.1c0-29.5 24.4-53.4 54.6-53.4l438.3 0C401.4-16.600000000000023 341.5 88.89999999999998 341.5 208.5z"  horiz-adv-x="1024" />

    
    <glyph glyph-name="avatar" unicode="&#45679;" d="M614.047971 333.75087799999994L409.953053 333.75087799999994c-191.061243 0-346.511034-153.064021-346.511034-341.257221l0-20.077327c0-100.415306 152.922718-100.415306 346.511034-100.415306l204.095942 0c185.892417 0 346.482364 0 346.511034 100.415306l0 20.077327C960.560029 180.65716299999997 805.080544 333.75087799999994 614.047971 333.75087799999994zM900.693592-29.487166000000002c0-4.815569-7.316019-21.148364-101.439241-29.154515-59.857221-5.092031-131.23986-5.092031-183.360224-5.092031L408.078227-63.733712999999966c-62.848137 0-134.083329 0-191.279341 5.088959-84.409146 7.510567-93.521148 22.892126-93.521148 29.157587l0 20.445944c0 154.111507 127.761551 279.49036 284.801514 279.49036l207.8159 0c157.038939 0 284.80049-125.378853 284.80049-279.49036L900.69564-29.487166000000002zM501.790851 896c-151.701163 0-275.034193-121.570837-275.034193-271.029581 0-149.45772 123.33303-271.058251 275.034193-271.058251 151.644846 0 275.034193 121.598483 275.034193 271.058251C776.825044 774.429163 653.493038 896 501.790851 896zM501.791875 418.150808c-116.733766 0-211.704807 93.148436-211.704807 207.643878 0 114.47906 94.970017 207.614184 211.703783 207.614184 116.73479 0 211.705831-93.135124 211.705831-207.614184C713.496682 511.299244 618.526665 418.150808 501.791875 418.150808z"  horiz-adv-x="1024" />

    
    <glyph glyph-name="iconfont-shangyi-copy" unicode="&#46219;" d="M306.714 236.00300000000004v474.393h-63.167v-474.393h-157.913l189.495-189.497 189.495 189.495-157.911 0.001zM938.365 4.92999999999995h-94.747v63.165h94.747v-63.165zM812.036 4.92999999999995h-94.748v63.165h94.748v-63.165zM685.708 4.92999999999995h-63.167v94.747h63.167v-94.747zM938.365 226.00900000000001h-63.165v94.749h63.165v-94.749zM843.619 257.59000000000003h-94.748v63.167h94.748v-63.167zM717.289 257.591h-94.748v63.167h94.748v-63.167zM938.365 99.67899999999997h-63.165v94.748h63.165v-94.748zM685.708 131.26099999999997h-63.167v94.748h63.167v-94.748zM685.708 510.253v189.494h189.497v-189.494h-189.497zM622.54 447.087h315.826v315.824h-315.826v-315.824z"  horiz-adv-x="1024" />

    
    <glyph glyph-name="iconfont-shangyi" unicode="&#46220;" d="M730.973 542.068v-506.019h67.377v506.019h168.441l-202.127 202.128-202.128-202.128h168.442zM57.211 788.546h101.066v-67.377h-101.066v67.377zM191.963 788.546h101.066v-67.377h-101.066v67.377zM326.714 788.546h67.377v-101.066h-67.377v101.066zM57.211 552.729h67.376v-101.066h-67.376v101.066zM158.275 519.039h101.066v-67.376h-101.066v67.376zM293.027 519.039h101.066v-67.376h-101.066v67.376zM57.211 687.481h67.376v-101.066h-67.376v101.066zM326.714 653.7909999999999h67.377v-101.065h-67.377v101.065zM326.714 249.53499999999997v-202.126h-202.127v202.126h202.127zM394.092 316.91099999999994h-336.881v-336.879h336.881v336.879z"  horiz-adv-x="1024" />

    
    <glyph glyph-name="sousuo" unicode="&#45966;" d="M1011.626667-35.96799999999996l-183.082667 180.266667a460.373333 460.373333 0 0 1 93.354667 278.016c0 255.274667-206.336 462.250667-460.928 462.250666C206.336 884.565333 0 677.589333 0 422.314667c0-255.36 206.336-462.293333 460.970667-462.293334 117.248 0 224.042667 44.373333 305.365333 116.693334l183.338667-180.437334a43.818667 43.818667 0 0 1 63.573333 1.706667c17.066667 18.688 16.384 48.256-1.621333 66.048z m-550.656 77.568c-209.664 0-379.562667 170.453333-379.562667 380.714667 0 210.218667 169.941333 380.629333 379.562667 380.629333S840.533333 632.490667 840.533333 422.314667c0-210.261333-169.941333-380.714667-379.562666-380.714667z"  horiz-adv-x="1025" />

    
    <glyph glyph-name="renwu" unicode="&#45932;" d="M536.975 158.091c0 120.335 97.552 217.888 217.888 217.888 0.066 0 0.142 0 0.22 0 36.406 0 70.708-8.973 100.834-24.831l-1.183 401.238h-665.776v-760.89h425.535c-47.385 39.963-77.514 99.753-77.514 166.59zM269.794 595.605h504.087v-47.859h-504.087v47.859zM269.794 457.694h504.087v-31.854h-504.087v31.854zM269.794 329.29499999999996h288.506v-31.854h-288.506v31.854zM471.109 148.43399999999997h-201.321v31.854h201.321v-31.854zM754.859 343.41200000000003c-102.342 0-185.322-82.969-185.322-185.322s82.972-185.322 185.322-185.322 185.322 82.969 185.322 185.322-82.976 185.322-185.322 185.322zM863.046 118.24099999999999h-133.773v171.418h30.337v-141.226h103.436v-30.196z"  horiz-adv-x="1024" />

    
    <glyph glyph-name="gantanhao" unicode="&#45868;" d="M285.808485-26.483071c-13.486545-39.972202 7.994182-83.322828 47.970262-96.809373 39.973495-13.490424 83.324121 7.994182 96.810667 47.968969 13.486545 39.977374-7.995475 83.325414-47.970262 96.810667-39.994182 13.49301-83.324121-7.995475-96.810667-47.970263zM737.062788 766.254545c17.261899 51.165091-10.227071 106.640808-61.411556 123.909172-51.185778 17.267071-106.64598-10.227071-123.906586-61.393454a113.221818 113.221818 0 0 1-1.689858-5.585455l-0.020687 0.006465-179.269818-597.774222c-13.485253-39.978667 7.995475-83.326707 47.970262-96.815839 39.973495-13.485253 83.326707 7.996768 96.810667 47.96897l219.474748 584.215273-0.019394 0.006464a89.720242 89.720242 0 0 1 2.062222 5.462626z"  horiz-adv-x="1024" />

    
    <glyph glyph-name="b" unicode="&#45690;" d="M512.003 52.86500000000001l416.859 448.939h-833.724l416.865-448.939z"  horiz-adv-x="1024" />

    
    <glyph glyph-name="tianxie" unicode="&#45948;" d="M0.016-79.26689399999998h1023.939203v-48.733106H0.016v48.733106zM28.270322-25.44608900000003l0.127992-0.51197 1.439915 0.255985a15.679069 15.679069 0 0 1 6.239629 1.119934l266.512176 47.933154v0.191988c9.247451 1.759896 18.174921 6.23963 25.374494 13.439202L914.041729 623.0594060000001a48.733106 48.733106 0 0 1 0 68.987904L724.420988 881.668051a48.66911 48.66911 0 0 1-68.923908 0L69.323884 295.52685299999996a48.829101 48.829101 0 0 1-13.375206-25.118508l-0.255984 0.063996-35.485893-248.43325-0.479972-0.063996 0.255985-1.375918-3.615785-25.502486a14.847118 14.847118 0 0 1 11.903293-20.54278z m92.762492 303.725966l551.647246 551.647246a24.41455 24.41455 0 0 0 34.493952 0l155.190786-155.190785a24.350554 24.350554 0 0 0 0-34.429956L310.653555 88.65913599999999a24.286558 24.286558 0 0 0-34.461953 0l-155.158788 155.190785a24.318556 24.318556 0 0 0 0 34.429956z m-26.014455-77.371406l140.11968-140.183677-164.37424-29.566244 24.25456 169.749921z"  horiz-adv-x="1024" />

    
    <glyph glyph-name="shipin" unicode="&#46204;" d="M425.472 624.64c-28.672 0-57.344-20.48-57.344-66.56v-218.624c0-46.08 28.672-66.56 57.344-66.56 12.8 0 25.6 3.584 38.4 11.264l189.44 109.568c23.04 13.312 36.352 33.28 36.352 55.296 0 21.504-13.312 41.984-36.352 55.296l-189.44 109.568c-12.8 7.168-25.6 10.752-38.4 10.752z m-8.704-66.56c0 6.656 1.024 18.432 9.216 18.432 2.048 0 7.168-0.512 14.336-4.608l189.44-109.568c8.704-5.12 12.8-10.24 12.8-13.824 0-3.072-4.096-8.704-12.8-13.824l-189.44-109.568c-7.168-4.096-12.288-4.608-14.336-4.608-7.68 0-9.216 11.776-9.216 18.432v219.136zM782.336 715.7760000000001v-74.24c0-3.072 2.048-5.12 5.12-5.12h74.24c3.072 0 5.12 2.048 5.12 5.12v74.24c0 3.072-2.048 5.12-5.12 5.12h-74.24c-3.072 0-5.12-2.048-5.12-5.12zM782.336 564.736v-74.24c0-3.072 2.048-5.12 5.12-5.12h74.24c3.072 0 5.12 2.048 5.12 5.12v74.24c0 3.072-2.048 5.12-5.12 5.12h-74.24c-3.072 0-5.12-2.56-5.12-5.12zM782.336 413.184v-74.24c0-3.072 2.048-5.12 5.12-5.12h74.24c3.072 0 5.12 2.048 5.12 5.12v74.24c0 3.072-2.048 5.12-5.12 5.12h-74.24c-3.072 0-5.12-2.048-5.12-5.12zM225.28 641.5360000000001v74.24c0 3.072-2.048 5.12-5.12 5.12h-74.24c-3.072 0-5.12-2.048-5.12-5.12v-74.24c0-3.072 2.048-5.12 5.12-5.12h74.24c3.072 0 5.12 2.048 5.12 5.12zM225.28 36.351999999999975v74.24c0 3.072-2.048 5.12-5.12 5.12h-74.24c-3.072 0-5.12-2.048-5.12-5.12v-74.24c0-3.072 2.048-5.12 5.12-5.12h74.24c3.072 0 5.12 2.048 5.12 5.12zM963.584 196.60799999999995V751.616c0 46.08-37.888 83.968-83.968 83.968h-735.232c-46.08 0-83.968-37.888-83.968-83.968v-735.232c0-46.08 37.888-83.968 83.968-83.968h555.008c1.536 0 2.56 0.512 3.584 1.536l259.072 259.072c1.024 1.024 1.536 2.56 1.536 3.584z m-60.928 15.36L686.08-4.607999999999947v165.376c0 28.16 23.04 51.2 51.2 51.2h165.376z m-271.872-51.2v-173.056h-486.4c-15.872 0-28.672 12.8-28.672 28.672V751.616c0 15.872 12.8 28.672 28.672 28.672h735.232c15.872 0 28.672-12.8 28.672-28.672v-484.352H737.28c-58.88 0-106.496-47.616-106.496-106.496zM225.28 187.39200000000005v74.24c0 3.072-2.048 5.12-5.12 5.12h-74.24c-3.072 0-5.12-2.048-5.12-5.12v-74.24c0-3.072 2.048-5.12 5.12-5.12h74.24c3.072 0 5.12 2.56 5.12 5.12zM225.28 490.496v74.24c0 3.072-2.048 5.12-5.12 5.12h-74.24c-3.072 0-5.12-2.048-5.12-5.12v-74.752c0-3.072 2.048-5.12 5.12-5.12h74.24c3.072 0 5.12 2.56 5.12 5.632zM225.28 338.94399999999996v74.24c0 3.072-2.048 5.12-5.12 5.12h-74.24c-3.072 0-5.12-2.048-5.12-5.12v-74.24c0-3.072 2.048-5.12 5.12-5.12h74.24c3.072 0 5.12 2.048 5.12 5.12z"  horiz-adv-x="1024" />

    
    <glyph glyph-name="shang1" unicode="&#45691;" d="M551.936 144.44799999999998l399.232 399.232c22.08 22.08 22.08 57.792 0 79.872-22.016 22.016-57.792 22.08-79.872 0l-359.296-359.296-359.296 359.296c-22.016 22.016-57.792 22.08-79.872 0s-22.016-57.792 0-79.872l399.232-399.232c22.08-22.016 57.792-22.016 79.872 0z"  horiz-adv-x="1024" />

    
    <glyph glyph-name="chuyidong" unicode="&#45710;" d="M512 454.30748639651154L254.3219023179334 712.043592649218a49.71412125496538 49.71412125496538 0 1 1-70.30748492361464-70.30748639651151L441.63450503284866 384l-257.7361077256034-257.6780976820668a49.71412125496538 49.71412125496538 0 1 1 70.30748639651151-70.30748492361464L512 313.63450503284855l257.6780976820668-257.7361077256034a49.71412125496538 49.71412125496538 0 1 1 70.30748492361464 70.30748639651151L582.3654949671514 384l257.7361077256034 257.6780976820668a49.71412125496538 49.71412125496538 0 1 1-70.30748639651151 70.30748492361464L512 454.36549496715134z"  horiz-adv-x="1024" />

    
    <glyph glyph-name="paixu" unicode="&#46155;" d="M178.685002 486.398995l682.671673 0-341.335837 409.601005L178.685002 486.398995 178.685002 486.398995zM178.685002 486.398995M861.356675 281.60224200000005L178.685002 281.60224200000005l341.335837-409.602254L861.356675 281.60224200000005 861.356675 281.60224200000005zM861.356675 281.60224200000005"  horiz-adv-x="1052" />

    
    <glyph glyph-name="zengjiafenleijiedian_keyong" unicode="&#45978;" d="M870.4 896H153.6C70.4 896 0 825.6 0 742.4v-716.8C0-57.60000000000002 70.4-128 153.6-128H704v64H153.6c-51.2 0-89.6 32-89.6 83.2V742.4C64 793.6 102.4 832 153.6 832h716.8c51.2 0 89.6-38.4 89.6-89.6V192h64V742.4C1024 825.6 953.6 896 870.4 896zM896 192h-64v-128h-128v-64h128v-128h64v128h128v64h-128zM320 704h512v-64H320zM320 512h512v-64H320zM320 320h512v-64H320zM192 704h64v-64H192zM192 512h64v-64H192zM192 320h64v-64H192z"  horiz-adv-x="1024" />

    
    <glyph glyph-name="zhangdan" unicode="&#45951;" d="M832 832v-704H192V832h640m0 64H192c-38.4 0-64-25.6-64-64v-704c0-38.4 25.6-64 64-64h640c38.4 0 64 25.6 64 64V832c0 38.4-25.6 64-64 64zM928-128h-832C38.4-128 6.4-57.60000000000002 6.4-25.600000000000023V403.2h64v-428.8c0-12.8 19.2-38.4 25.6-38.4h832c6.4 0 25.6 25.6 25.6 38.4V403.2h64v-428.8c6.4-32-32-102.4-89.6-102.4zM256 704h448v-64H256zM256 512h512v-64H256zM256 320h320v-64H256z"  horiz-adv-x="1024" />

    
    <glyph glyph-name="xiangmucehua" unicode="&#45962;" d="M1127.480889 712.476444c-6.826667 1.706667-12.003556 1.706667-18.830222 1.706667h-472.576 472.576c6.883556 0.056889 13.710222 0.056889 18.830222-1.706667z m22.300444-6.826666c-1.706667 0-1.706667 1.706667-3.413333 1.706666 1.706667 0 3.413333-1.706667 3.413333-1.706666z m39.367111-32.540445c-1.706667 1.706667-3.413333 5.12-5.12 6.826667 1.706667-3.413333 3.413333-5.12 5.12-6.826667z m34.247112-518.769777h-23.950223V635.448889c0 6.826667 0 12.003556-1.706666 18.830222 1.706667-5.12 1.706667-12.003556 1.706666-18.830222v-481.109333h23.950223z m15.416888 5.12c-1.706667-1.706667-5.12-1.706667-6.826666-3.413334 1.649778 1.706667 5.12 1.706667 6.826666 3.413334z m39.367112 640.341333c-17.123556 13.710222-39.367111 20.536889-61.667556 20.536889h-535.893333c-23.950222 0-46.250667-6.826667-61.610667-20.536889-17.123556-15.416889-27.420444-35.953778-27.420444-56.490667v-27.420444h-17.123556c-23.950222 0-46.250667-6.826667-61.667556-20.536889-18.830222-17.123556-29.127111-37.660444-29.127111-59.904v-556.430222c0-22.243556 10.296889-42.780444 27.420445-56.490667 17.123556-13.710222 39.367111-20.536889 61.610666-20.536889h534.186667c23.950222 0 46.250667 6.826667 61.667556 20.536889 17.123556 15.416889 29.127111 35.953778 29.127111 56.490667V106.38222199999996h15.416889c23.950222 0 46.250667 6.826667 61.667555 20.536889 17.123556 15.416889 27.420444 35.953778 27.420445 56.490667V741.603556c3.356444 22.243556-6.883556 42.837333-24.007111 58.197333z m-124.984889-719.075556c0-17.123556-20.536889-30.833778-44.544-30.833777h-534.186667c-23.950222 0-44.544 13.710222-44.544 30.833777V635.448889c0 17.123556 20.536889 30.833778 44.544 30.833778h534.186667c23.950222 0 44.544-13.710222 44.544-30.833778v-554.723556z m106.154666 106.154667c0-6.826667-3.413333-13.710222-8.590222-18.830222l-1.706667-1.706667c-1.706667-1.706667-3.413333-3.413333-5.12-3.413333 0 0-1.706667 0-1.706666-1.706667s-1.706667 0-1.706667-1.706667c0 0-1.706667 0-1.706667-1.706666h-1.706666c-1.706667-1.706667-5.12-1.706667-6.826667-3.413334h-3.413333c-1.706667 0-3.413333 0-5.12-1.706666h-23.950222V635.448889c0 6.826667 0 12.003556-1.706667 18.830222 0 1.706667 0 1.706667-1.706667 3.413333 0 1.706667 0 1.706667-1.706666 3.413334 0 1.706667 0 1.706667-1.706667 3.413333 0 1.706667-1.706667 1.706667-1.706667 3.413333-1.706667 1.706667-1.706667 3.413333-3.413333 5.12s-3.413333 5.12-5.12 6.826667c-1.706667 3.413333-5.12 5.12-6.826667 8.533333-1.706667 1.706667-3.413333 3.413333-6.826666 5.12l-5.12 5.12c-1.706667 0-1.706667 1.706667-3.413334 1.706667-3.413333 1.706667-8.533333 5.12-12.003555 6.826667-1.706667 0-1.706667 1.706667-3.413334 1.706666s-3.413333 1.706667-5.12 1.706667h-1.706666c-3.413333 0-5.12 1.706667-8.533334 1.706667h-5.12c-6.826667 1.706667-12.003556 1.706667-18.830222 1.706666h-467.399111v27.420445c0 3.413333 0 6.826667 1.706667 10.296889 1.706667 3.413333 3.413333 5.12 6.826666 8.533333 8.590222 8.590222 20.536889 13.710222 35.953778 13.710222h534.186667c23.950222 0 44.544-13.710222 44.544-30.833777v-556.259556zM603.591111 618.325333h344.177778v-46.250666h-344.177778v46.250666z m419.498667-23.950222c0 13.710222 10.296889 23.950222 23.950222 25.656889 13.710222 0 23.950222-10.296889 25.656889-23.950222v-1.706667c0-13.710222-10.296889-23.950222-23.950222-25.656889-13.710222 0-23.950222 10.296889-25.656889 23.950222v1.706667zM529.976889 531.0008889999999h623.217778v-46.250667H529.976889v46.250667z m0 0M964.096 149.50400000000002l58.481778-0.398222-27.306667-71.168zM964.608 168.61866699999996l-2.730667 212.935111 59.221334-0.739556 2.673777-212.935111zM961.706667 399.189333l-0.568889 43.861334 59.164444-0.796445 0.568889-43.804444zM846.904889 356.86400000000003v-4.039111H645.688889c-6.542222 0-12.344889 3.072-16.270222 8.590222-3.299556 4.721778-5.12 10.865778-5.12 17.408s1.820444 12.743111 5.12 17.408c3.925333 5.518222 9.671111 8.590222 16.270222 8.590222h201.216c6.542222 0 12.344889-3.072 16.270222-8.590222 3.299556-4.721778 5.12-10.865778 5.12-17.408 0-5.802667-2.503111-12.231111-6.940444-17.521778-4.380444-5.290667-9.784889-8.476444-14.506667-8.476444l0.056889 4.039111zM846.904889 244.50844400000005v-4.039111H645.688889c-6.542222 0-12.344889 3.072-16.270222 8.590223-3.299556 4.721778-5.12 10.865778-5.12 17.408s1.820444 12.743111 5.12 17.408c3.925333 5.518222 9.671111 8.590222 16.270222 8.590222h201.216c6.542222 0 12.344889-3.072 16.270222-8.590222 3.299556-4.721778 5.12-10.865778 5.12-17.408 0-5.802667-2.503111-12.231111-6.940444-17.521778-4.380444-5.290667-9.784889-8.476444-14.506667-8.476445l0.056889 4.039111zM846.904889 132.15288899999996v-4.039111H645.688889c-6.542222 0-12.344889 3.072-16.270222 8.590222-3.299556 4.721778-5.12 10.865778-5.12 17.408s1.820444 12.743111 5.12 17.408c3.925333 5.518222 9.671111 8.590222 16.270222 8.590222h201.216c6.542222 0 12.344889-3.072 16.270222-8.590222 3.299556-4.721778 5.12-10.865778 5.12-17.408 0-5.802667-2.503111-12.231111-6.940444-17.521778-4.380444-5.290667-9.784889-8.476444-14.506667-8.476444l0.056889 4.039111z"  horiz-adv-x="1638" />

    
    <glyph glyph-name="zuo" unicode="&#45692;" d="M204.8 384l614.4-512V896z"  horiz-adv-x="1024" />

    
    <glyph glyph-name="zhongmingming-" unicode="&#45711;" d="M652.8 396.8l38.4 51.2 64 70.4c57.6 70.4 44.8 166.4-19.2 224-32 32-76.8 44.8-115.2 38.4-44.8 0-83.2-19.2-108.8-57.6L435.2 633.6l-25.6-32-275.2-326.4 19.2-224 224 19.2 275.2 326.4zM345.6 128l-134.4-12.8-12.8 140.8 256 307.2 147.2-121.6-256-313.6z m153.6 480l64 70.4c12.8 25.6 38.4 38.4 64 38.4s51.2-6.4 70.4-19.2c38.4-32 44.8-96 12.8-134.4l-64-70.4-147.2 115.2zM883.2 64H524.8c-19.2 0-32-12.8-32-32s19.2-32 32-32h358.4c19.2 0 32 12.8 32 32s-19.2 32-32 32z"  horiz-adv-x="1024" />

    
    <glyph glyph-name="dagou" unicode="&#45693;" d="M388.85 31.864000000000033c-13.431 0-26.865 5.127-37.115 15.372L23.658 375.31399999999996c-20.5 20.497-20.5 53.733 0 74.23 20.498 20.5 53.731 20.5 74.231 0l290.96-290.959 537.016 537.018c20.5 20.498 53.732 20.498 74.232 0 20.498-20.499 20.498-53.733 0-74.232L425.966 47.23599999999999c-10.25-10.246-23.682-15.372-37.116-15.372z"  horiz-adv-x="1024" />

    
    <glyph glyph-name="wenjianjia1" unicode="&#45867;" d="M434.63111111 759.69422222c14.10844445 0 27.07911111-7.85066667 33.45066667-20.48l46.53511111-90.33955555c9.67111111-18.88711111 29.12711111-30.72 50.40355556-30.72h343.83644444c31.17511111 0 56.66133333-25.37244445 56.66133333-56.66133334v-481.39377778c0-31.17511111-25.37244445-56.66133333-56.66133333-56.66133333H115.93955555c-31.17511111 0-56.66133333 25.37244445-56.66133333 56.66133333V703.03288889c0 31.17511111 25.37244445 56.66133333 56.66133333 56.66133333H434.63111111zM115.93955555 816.35555555c-62.57777778 0-113.32266667-50.74488889-113.32266666-113.32266666v-623.04711111c0-62.57777778 50.74488889-113.32266667 113.32266666-113.32266667h792.91733334c62.57777778 0 113.32266667 50.74488889 113.32266666 113.32266667V561.49333333c0 62.57777778-50.74488889 113.32266667-113.32266666 113.32266667H580.26666667c-9.44355555 0-17.97688889 5.23377778-22.30044445 13.65333333L502.67022222 795.87555555c-6.48533333 12.51555555-19.34222222 20.48-33.45066667 20.48H115.93955555z"  horiz-adv-x="1024" />

    
    <glyph glyph-name="gongxuyanwu" unicode="&#45979;" d="M512-44.799999999999955A428.8 428.8 0 0 0 512 812.8c224 0 403.2-172.8 422.4-384 32-6.4 57.6-12.8 89.6-19.2C1011.2 678.4 787.2 896 512 896 230.4 896 0 665.6 0 384s230.4-512 512-512c38.4 0 76.8 6.4 108.8 12.8-19.2 25.6-32 51.2-44.8 76.8-19.2 0-44.8-6.4-64-6.4M582.4 313.6c12.8 6.4 12.8 19.2 12.8 25.6V640c0 25.6-19.2 44.8-44.8 44.8-19.2 0-38.4-19.2-38.4-44.8v-256H300.8c-25.6 0-44.8-19.2-44.8-44.8 0-19.2 19.2-38.4 44.8-38.4h256c6.4 0 19.2 0 25.6 12.8zM697.6 57.60000000000002l-19.2-6.4-44.8-64 6.4-6.4 12.8-12.8 64 44.8 6.4 19.2 57.6 57.6-19.2 19.2-64-51.2z m243.2 249.6h12.8v-12.8l-96-96 19.2-19.2 96 96h12.8v-12.8l-96-96 12.8-12.8 12.8 12.8 83.2 83.2c19.2 19.2 19.2 44.8 0 64-19.2 19.2-44.8 19.2-64 0l-83.2-83.2-12.8-12.8 12.8-12.8 89.6 102.4z m-140.8-76.8v19.2c0 19.2-12.8 38.4-19.2 51.2-25.6 19.2-64 32-96 19.2l51.2-44.8c6.4-6.4 6.4-19.2 0-25.6l-19.2-19.2c-6.4-6.4-19.2-6.4-25.6 0l-57.6 38.4c-12.8-25.6-6.4-64 19.2-89.6 12.8-12.8 25.6-19.2 44.8-19.2h19.2l179.2-179.2c19.2-19.2 51.2-19.2 70.4 0 12.8 12.8 19.2 19.2 19.2 32s-6.4 25.6-19.2 32l-166.4 185.6z m166.4-236.8c-12.8-12.8-25.6-12.8-38.4 0-12.8 12.8-12.8 25.6 0 38.4s25.6 12.8 38.4 0 6.4-25.6 0-38.4z"  horiz-adv-x="1024" />

    
    <glyph glyph-name="diannao" unicode="&#46143;" d="M896 832H128a96 96 0 0 1-96-96v-512a96 96 0 0 1 96-96h352v-128H288a32 32 0 0 1 0-64h448a32 32 0 0 1 0 64h-192v128h352a96 96 0 0 1 96 96V736a96 96 0 0 1-96 96z m32-608a32 32 0 0 0-32-32H128a32 32 0 0 0-32 32V736a32 32 0 0 0 32 32h768a32 32 0 0 0 32-32zM768 640H192a32 32 0 0 1 0-64h576a32 32 0 0 1 0 64zM512 512H192a32 32 0 0 1 0-64h320a32 32 0 0 1 0 64z"  horiz-adv-x="1024" />

    
    <glyph glyph-name="newfolder" unicode="&#45722;" d="M887.395 796.559h-402.767l-96.3825 61.1201H146.117c-58.7694 0-106.569-47.7994-106.569-106.569v-611.201c0-58.7694 47.7994-106.569 106.569-106.569H887.395c58.7694 0 106.569 47.7994 106.569 106.569v550.082c0 58.7694-47.7994 106.569-106.569 106.569Zm14.8883-656.653c0-8.61955-7.05238-14.8883-14.8883-14.8883H146.117c-8.61955 0-14.8883 7.05238-14.8883 14.8883v611.201c0 8.61955 7.05238 14.8883 14.8883 14.8883h215.487l96.3825-61.1201H887.395c8.61955 0 14.8883-7.05238 14.8883-14.8883v-550.082ZM674.257 473.72h-111.27v111.27c0 25.075-20.3732 45.4484-45.4484 45.4484-25.075 0-45.4484-20.3732-45.4484-45.4484v-111.27h-111.27c-25.075 0-45.4484-20.3732-45.4484-45.4484 0-25.075 20.3732-45.4484 45.4484-45.4484H472.092v-111.27c0-25.075 20.3732-45.4484 45.4484-45.4484 25.075 0 45.4484 20.3732 45.4484 45.4484V382.04100000000005h111.27c25.075 0 45.4484 20.3732 45.4484 45.4484 0 25.075-20.3732 46.2322-45.4484 46.2322Z"  horiz-adv-x="1024" />

    
    <glyph glyph-name="tupian" unicode="&#45902;" d="M873.049 774.703H148.086c-46.2 0-83.65-37.45-83.65-83.649v-613.428c0-46.202 37.45-83.652 83.65-83.652h724.963c46.2 0 83.652 37.45 83.652 83.652V691.054c0 46.2-37.452 83.65-83.652 83.65zM677.864 663.171c46.205 0 83.652-37.45 83.652-83.65s-37.447-83.65-83.652-83.65c-46.198 0-83.647 37.45-83.647 83.65s37.45 83.65 83.647 83.65zM148.086 105.50599999999997s59.372 346.27 197.424 346.27c135.296 0 169.807-242.168 265.064-242.168 60.055 0 53.807 109.364 149.153 109.364 68.34 0 111.798-213.466 111.798-213.466h-723.44z"  horiz-adv-x="1024" />

    
    <glyph glyph-name="fanhui" unicode="&#46205;" d="M846.11072 515.1129599999999c-51.87072 52.73088-119.42912 90.4192-200.79616 112.01536-51.11808 13.56288-95.21664 17.31584-120.49408 18.24256V821.9904a20.47488 20.47488 0 0 1-32.512 16.54784l-392.37632-285.7472a20.46464 20.46464 0 0 1 0.03584-33.11104l392.3712-284.44672a20.46464 20.46464 0 0 1 32.47616 16.56832V418.14016c141.23008-3.6864 253.87008-45.80864 326.67136-122.37824 57.15456-60.11904 70.55872-121.31328 70.8352-122.60352a20.47488 20.47488 0 0 1 20.0448-16.41472v0.00512a20.45952 20.45952 0 0 1 20.48 20.12672c2.37568 143.2832-36.90496 257.08544-116.736 338.23744z"  horiz-adv-x="1024" />

    
    <glyph glyph-name="jiankong" unicode="&#45949;" d="M0.796444 175.729778V831.488C22.357333 877.340444 58.026667 895.431111 109.169778 895.089778c270.279111-1.308444 540.615111-0.568889 810.951111-0.682667 68.152889 0 103.253333-35.214222 103.253333-103.480889 0.113778-189.667556 0.113778-379.335111 0.056889-569.002666 0-76.117333-33.450667-109.112889-110.705778-109.169778-266.922667 0-533.845333 0.682667-800.768-0.568889-51.598222-0.284444-89.031111 16.384-111.160889 63.544889zM512.568889 829.724444c-135.964444 0-271.985778 0.113778-408.007111-0.056888-30.72-0.056889-40.561778-9.329778-40.618667-38.912-0.341333-95.630222 0.170667-191.317333-0.455111-287.004445-0.113778-20.024889 7.736889-26.965333 27.306667-26.624 44.145778 0.853333 88.689778-2.958222 132.551111 1.137778 49.208889 4.551111 82.147556-10.695111 98.816-58.197333 2.218667-6.144 4.323556-17.066667 13.539555-15.36 4.551111 0.853333 8.135111 9.955556 10.979556 15.872 42.325333 86.812444 84.423111 173.681778 126.691555 260.551111 7.793778 15.928889 14.392889 34.076444 36.408889 34.304 22.869333 0.227556 31.061333-17.464889 39.537778-34.474667 30.378667-60.586667 61.212444-120.945778 91.022222-181.873778 7.68-15.758222 17.92-22.186667 35.669334-22.016a11769.173333 11769.173333 0 0 0 252.472889-0.113778c24.007111-0.341333 30.606222 8.704 30.378666 31.402667-0.910222 91.477333-0.284444 182.897778-0.398222 274.375111-0.056889 39.594667-7.623111 46.990222-48.014222 46.990222-132.664889 0.113778-265.272889 0-397.880889 0zM510.065778 177.493333c135.224889 0 270.392889-0.113778 405.617778 0.056889 33.336889 0 42.552889 9.272889 42.666666 42.154667 0.341333 54.215111-0.739556 108.487111 0.568889 162.702222 0.568889 23.438222-7.736889 30.947556-31.061333 30.72-95.232-1.024-190.520889 0.056889-285.752889-0.796444-22.584889-0.170667-36.352 7.850667-46.08 28.046222-22.357333 46.648889-46.08 92.558222-69.461333 138.638222-3.754667 7.395556-5.233778 19.569778-13.653334 19.968-10.922667 0.568889-11.832889-12.686222-15.701333-20.536889C456.192 494.705778 415.459556 410.851556 374.613333 327.11111100000005c-7.850667-16.099556-14.904889-33.678222-36.522666-34.702222-21.845333-1.024-30.151111 15.758222-38.798223 31.630222-12.117333 22.357333-25.031111 44.316444-36.579555 66.901333-7.793778 15.189333-18.090667 22.471111-36.067556 22.072889-45.056-1.080889-90.168889-1.137778-135.224889 0-21.390222 0.512-28.330667-7.964444-27.989333-28.558222 0.910222-53.304889 0.227556-106.723556 0.341333-160.085333 0.113778-39.367111 7.793778-46.876444 48.298667-46.876445 132.664889-0.113778 265.329778 0 397.994667 0z m1.137778-303.616c-71.281778 0-142.563556 1.024-213.845334-0.568889-26.168889-0.568889-28.501333 12.060444-28.444444 32.483556 0.056889 20.252444 2.048 33.28 28.216889 33.109333 142.620444-0.967111 285.184-0.967111 427.804444 0 25.998222 0.170667 28.444444-12.515556 28.444445-32.881777-0.113778-20.252444-1.877333-33.28-28.273778-32.711112-71.281778 1.592889-142.620444 0.568889-213.902222 0.568889z"  horiz-adv-x="1024" />

    
    <glyph glyph-name="wenjianjia2" unicode="&#46109;" d="M383.67968777 805.875H176.25781223C128.79687473 805.875 90.125 767.20312527 90.125 719.74218777v-235.54687527H1005.94531277v131.8359375c0 47.4609375-38.67187473 86.13281223-86.13281304 86.13281223H554.1875c-22.85156223 0-131.8359375 103.71093777-170.50781223 103.71093777zM1004.18749973 573.84375v-553.7109375c0-31.640625-26.3671875-58.0078125-58.0078125-58.0078125H148.1328125C114.73437527-37.875 90.125-11.5078125 90.125 20.1328125V573.84375c0 29.88281277 22.85156223 52.734375 52.734375 52.734375h808.59374973c29.88281277 0 52.734375-24.60937527 52.734375-52.734375z"  horiz-adv-x="1111" />

    
    <glyph glyph-name="shenglvehao" unicode="&#46190;" d="M500.092807 476.444459c-52.607148 0-95.252411-41.259706-95.252411-92.155886 0-50.897204 42.645263-92.155886 95.252411-92.155886 52.605102 0 95.250364 41.259706 95.250364 92.155886C595.344195 435.184753 552.697909 476.444459 500.092807 476.444459zM928.726098 476.444459c-52.607148 0-95.250364-41.259706-95.250364-92.155886 0-50.897204 42.643216-92.155886 95.250364-92.155886s95.252411 41.259706 95.252411 92.155886C1023.978509 435.184753 981.332223 476.444459 928.726098 476.444459zM95.271852 476.444459c-52.605102 0-95.250364-41.259706-95.250364-92.155886 0-50.897204 42.645263-92.155886 95.250364-92.155886 52.607148 0 95.252411 41.259706 95.252411 92.155886C190.524263 435.184753 147.879 476.444459 95.271852 476.444459z"  horiz-adv-x="1024" />

    
    <glyph glyph-name="shanchu" unicode="&#46207;" d="M512 475.01573193L178.42584077 808.66498544a64.3568326 64.3568326 0 1 1-91.01572999-91.0157319L420.90917376 384l-333.64925543-333.57415923a64.3568326 64.3568326 0 1 1 91.01573193-91.01572999L512 292.90917376000004l333.57415923-333.64925543a64.3568326 64.3568326 0 1 1 91.01572999 91.01573193L603.09082624 384l333.64925543 333.57415923a64.3568326 64.3568326 0 1 1-91.01573193 91.01572999L512 475.09082624z"  horiz-adv-x="1024" />

    
    <glyph glyph-name="shijian" unicode="&#46107;" d="M512-128A512 512 0 1 0 512 896a512 512 0 0 0 0-1024z m0 947.2a435.2 435.2 0 1 1 0-870.4 435.2 435.2 0 0 1 0 870.4z m246.58-500.736H499.404a26.112 26.112 0 0 0-18.944 8.192 26.112 26.112 0 0 0-8.192 18.944V657.715c0 14.541 11.776 26.317 26.317 26.317h26.112c14.438 0 26.214-11.776 26.214-26.317v-260.608h207.667a26.134 26.134 0 0 0 26.215-26.214v-26.112a26.214 26.214 0 0 0-26.215-26.215z"  horiz-adv-x="1024" />

    
    <glyph glyph-name="liaotian" unicode="&#45903;" d="M840.222 770.523H182.895c-65.963 0-119.487-53.58-119.487-119.605v-391.41c0-65.903 53.523-119.425 119.487-119.425h336.45S658.526 26.789999999999964 677.408 12.030999999999949c18.883-14.691 26.511-11.376 26.26 0-0.188 11.384-0.128 128.052-0.128 128.052h136.682c66.091 0 119.548 53.522 119.548 119.426V650.918c0.001 66.026-53.457 119.605-119.548 119.605z m-520.709-384.15c-35.327 0-64.024 28.572-64.024 64.025 0 35.45 28.697 64.025 64.024 64.025s64.026-28.576 64.026-64.025c0-35.453-28.698-64.025-64.026-64.025z m192.078 0c-35.328 0-64.026 28.572-64.026 64.025 0 35.45 28.698 64.025 64.026 64.025 35.327 0 64.026-28.576 64.026-64.025 0-35.453-28.7-64.025-64.026-64.025z m192.077 0c-35.324 0-64.024 28.572-64.024 64.025 0 35.45 28.7 64.025 64.024 64.025 35.327 0 64.027-28.576 64.027-64.025 0-35.453-28.701-64.025-64.027-64.025z"  horiz-adv-x="1025" />

    
    <glyph glyph-name="wenjian3" unicode="&#46170;" d="M784 720H240c-35.3 0-64-28.7-64-64v-544c0-35.3 28.7-64 64-64h544c35.3 0 64 28.7 64 64V656c0 35.3-28.7 64-64 64zM576 208H320v64h256v-64z m128 140H320v64h384v-64z m0 140H320v64h384v-64z"  horiz-adv-x="1024" />

    
    <glyph glyph-name="tuichu" unicode="&#45678;" d="M916.6 405L751.2 564.2c-13.2 12.7-33.1 12.7-46.3 0-13.2-12.7-13.2-31.8 0-44.6L814 414.5H496.5c-19.8 0-33.1-12.7-33.1-31.8s13.2-31.8 33.1-31.8H814L704.9 245.79999999999995c-13.2-12.7-13.2-31.8 0-44.6 6.6-6.4 13.2-9.6 23.1-9.6 9.9 0 16.5 3.2 23.2 9.6l165.4 162.4s0 3.2 3.3 3.2c9.9 9.5 9.9 28.6-3.3 38.2z m0 0M827.3 159.79999999999995c-19.8 0-33.1-12.7-33.1-31.8v-63.7c0-19.1-13.2-31.8-33.1-31.8H198.9c-19.8 0-33.1 12.7-33.1 31.8V701.1c0 19.1 13.2 31.8 33.1 31.8h562.2c19.8 0 33.1-12.7 33.1-31.8v-63.7c0-19.1 13.2-31.8 33.1-31.8 19.8 0 33.1 12.7 33.1 31.8v63.7c0 54.1-43 95.5-99.2 95.5H198.9c-56.2 0-99.2-41.4-99.2-95.5v-636.8c0-54.1 43-95.5 99.2-95.5h562.2c56.2 0 99.2 41.4 99.2 95.5V128c0 19.1-13.2 31.8-33 31.8z m0 0"  horiz-adv-x="1024" />

    
    <glyph glyph-name="yujigongqi" unicode="&#45980;" d="M662.592 685.184V865.856h60.224v-180.672h-60.224z m-481.92 0V865.856h60.224v-180.672h-60.224zM0 564.672h903.552v-60.224H0v60.224z m722.816-240.896h60.16v-180.672h-60.16V323.77599999999995zM0 745.408h60.16v-722.88H0V745.408z m843.264 0h60.224v-180.736h-60.224V745.408z m-120.448-542.08h180.672v-60.224h-180.672v60.224zM0 805.6320000000001h903.552v-60.16H0v60.16zM0 82.81600000000003h421.632v-60.224H0v60.224zM180.672 444.16h120.512v-120.448H180.672V444.16z m180.672 0h120.448v-120.448H361.344V444.16zM180.672 263.552h120.512v-120.512H180.672V263.552zM752.896-97.91999999999996a269.952 269.952 0 0 0-271.04 271.104 269.824 269.824 0 0 0 271.04 270.976A269.888 269.888 0 0 0 1024 173.18399999999997a270.016 270.016 0 0 0-271.104-271.104z m0 60.224c114.496 0 210.88 96.384 210.88 210.88C963.776 287.616 867.392 384 752.896 384 638.528 384 542.08 287.616 542.08 173.18399999999997c0-114.496 96.448-210.88 210.816-210.88z"  horiz-adv-x="1024" />

    
    <glyph glyph-name="fl-shuazi" unicode="&#45914;" d="M504.44832145-63.908839599999965L796.36624153 280.64324593000003 421.35802899 655.65145846l-343.22980974-293.24019586 77.7741892-77.77418921 96.74797104 96.74797104 15.06679257-15.06679256-96.74797103-96.74797104 204.92136808-204.92136809L405.11490721 93.87325081999995l12.74770181-12.74770181-29.2243381-29.22433808 54.98171578-54.98171578 69.72742591 69.72742591 10.36877298-10.36877297-69.72742592-69.72742592zM621.8440813 479.83767121l209.70987455-209.70987455L910.44390646 349.01774728l-0.03064877 0.03064877c-78.47838134 78.47838134-111.93225058 174.25726724-80.62160649 223.24787697 2.99555304 3.17214837 6.02029538 6.31510741 9.10414608 9.57555344l8.16497999 8.34157532 3.5537986 3.55379861c7.87162742 7.87162742 15.65495718 15.36014514 23.20404272 22.43928276 11.4538856 10.6322065 22.38017442 20.2668683 32.36656741 28.54860555 9.74995958 5.52188789 19.06062003 12.42443019 27.66708836 20.79446509 0.11748697 0.11748697 0.23497395 0.17659533 0.32254187 0.20578465l1.0573828 1.05738278c43.52710043 43.52710043 50.51721067 107.14593331 15.62503813 142.03810586-34.86371297 34.86371297-98.48035664 27.87287299-142.00818681-15.65495718l-1.05738279-1.05738278c-0.02991905-0.08829766-0.0890274-0.20578463-0.20578464-0.3225419-8.37076464-8.6057386-15.2725772-17.91712878-20.79446509-27.66708834-8.2831967-9.986393-17.91712878-20.91195207-28.54860555-32.36656741-7.0784079-7.5483558-14.56765534-15.33241529-22.43928276-23.20404271l-3.5537986-3.55379862-8.34157534-8.16497999c-3.26117577-3.08458043-6.40340507-6.11005251-9.57482372-9.1048758-48.96215014-31.33910366-144.77022536 2.14395489-223.2493364 80.62306595l-0.02918932 0.02918931-78.88995062-78.88995061 209.67922578-209.67922579z m308.45293498 308.45293499c14.74425068-14.74425068 15.39079391-38.00521255 1.46895208-51.92705438s-37.18426317-13.2752986-51.92778413 1.46822233-15.39006418 38.00594228-1.46822234 51.92778413 37.18353345 13.27456888 51.92705439-1.46895208zM445.2363448 696.56611558l37.56591341 37.56591341 393.71783111-393.7178311-37.56591342-37.56591342L445.2363448 696.56611558z"  horiz-adv-x="1024" />

    
    <glyph glyph-name="chakan1" unicode="&#46218;" d="M315.5-127.84299999999996H41.076A39.204 39.204 0 0 0 1.87-88.63999999999999V855.934A39.204 39.204 0 0 0 41.075 895.138h595.347c10.428 0 20.386-4.156 27.756-11.448l152.738-152.737a39.204 39.204 0 0 0 11.447-27.757v-169.908a39.204 39.204 0 0 0-78.407 0V686.966L620.113 816.73H80.278v-866.166h235.223a39.204 39.204 0 0 0 0-78.407z m552.694 191.706a39.204 39.204 0 0 1-27.756-66.882l110.868-110.868a39.047 39.047 0 0 1 55.512 0 39.204 39.204 0 0 1 0 55.434L895.95 52.414999999999964a39.36 39.36 0 0 1-27.756 11.448zM359.957 496.907H203.143a39.204 39.204 0 0 1 0-78.408h156.814a39.204 39.204 0 0 1 0 78.408zM516.772 653.72h-313.63a39.204 39.204 0 0 1 0-78.407h313.63a39.204 39.204 0 0 1 0 78.407z m-156.815-313.63H203.143a39.204 39.204 0 0 1 0-78.406h156.814a39.204 39.204 0 0 1 0 78.407z m346.718 7.058c86.483 0 156.814-70.332 156.814-156.815s-70.33-156.815-156.814-156.815S549.86 103.851 549.86 190.33399999999995s70.331 156.815 156.815 156.815m0 78.407a235.222 235.222 0 1 1 0-470.444 235.222 235.222 0 0 1 0 470.444z"  horiz-adv-x="1024" />

    
    <glyph glyph-name="caidan" unicode="&#45694;" d="M918.20032 689.8442239999999c0 18.847744-15.280128 34.123776-34.123776 34.123776H139.595776C120.748032 723.968 105.472 708.691968 105.472 689.8442239999999c0-18.843648 15.276032-34.11968 34.123776-34.11968h744.479744c18.844672 0 34.1248 15.276032 34.1248 34.11968z m0-612.375552c0 18.842624-15.280128 34.118656-34.123776 34.118656H139.595776c-18.847744 0-34.123776-15.276032-34.123776-34.118656 0-18.844672 15.276032-34.1248 34.123776-34.1248h744.479744c18.844672 0 34.1248 15.280128 34.1248 34.1248z m0 304.26112c0 18.78528-17.557504 34.014208-39.215104 34.014208H432.431104C410.773504 415.744 393.216 400.515072 393.216 381.729792s17.557504-34.013184 39.215104-34.013184h446.554112c21.6576 0 39.215104 15.227904 39.215104 34.013184zM115.712 502.439936v-246.784l157.396992 122.420224L115.712 502.439936z"  horiz-adv-x="1024" />

    
    <glyph glyph-name="jianhao" unicode="&#45851;" d="M914.76 339.23199999999997H108.928c-24.715 0-44.771 20.057-44.771 44.765 0 24.715 20.056 44.772 44.771 44.772H914.76c24.762 0 44.771-20.057 44.771-44.772 0-24.709-20.009-44.765-44.771-44.765z m0 0"  horiz-adv-x="1024" />

    
    <glyph glyph-name="tupian1" unicode="&#45950;" d="M910.2 680.3v-592h-796v592h796m20 50h-836c-16.6 0-30-13.4-30-30v-632c0-16.6 13.4-30 30-30h836c16.6 0 30 13.4 30 30v632c0 16.5-13.4 30-30 30zM106.5 154.10000000000002l-35.4 35.4 292 292c11.1 11.1 25.7 17.1 41.4 17.1 15.6 0 30.3-6.1 41.4-17.1l211.8-211.8-35.4-35.4-211.7 211.9c-2.2 2.2-4.7 2.5-6 2.5-1.3 0-3.8-0.3-6-2.5L106.5 154.10000000000002zM503 118.39999999999998c-6.4 0-12.8 2.4-17.7 7.3-9.8 9.8-9.8 25.6 0 35.4L722.2 398c21.4 21.4 56.3 21.4 77.8 0l144.3-144.3c9.8-9.8 9.8-25.6 0-35.4s-25.6-9.8-35.4 0L764.6 362.70000000000005c-2 2-5.1 1.9-7.1 0L520.6 125.79999999999995c-4.9-4.9-11.3-7.4-17.6-7.4zM735.9 477.9c-42.6 0-77.2 34.7-77.2 77.2s34.7 77.2 77.2 77.2c42.6 0 77.2-34.7 77.2-77.2s-34.6-77.2-77.2-77.2z m0 104.5c-15 0-27.2-12.2-27.2-27.2s12.2-27.2 27.2-27.2 27.2 12.2 27.2 27.2-12.2 27.2-27.2 27.2z"  horiz-adv-x="1024" />

    
    <glyph glyph-name="guanlian" unicode="&#46122;" d="M239.9 525h310v-50h-310v50z m-100 242.1h156.3v-74.3h50v74.3h123.7v-74.3h50v74.3h123.7v-74.3h50v74.3h156.3V607h50V817.1h-810V-11h300.3v50H139.9V767.1z m100-484.4h220.3v50H239.9v-50z m694.4 184.6l-147.2 85c-23.8 13.8-54.6 5.5-68.3-18.3l-130-225.2c-13.8-23.8-5.5-54.6 18.3-68.3l62.5-36.1 25 43.3-62.4 36v0.1l129.9 225h0.1l147-84.8v-0.1l-75.8-131.3 43.3-25L952.6 399c13.7 23.8 5.5 54.5-18.3 68.3z m-117.7-204l-70.7 40.8-25-43.3 70.6-40.8v-0.1l-129.9-225h-0.1l-147.1 84.9v0.1l74.4 128.9-43.3 25-74.5-129c-13.8-23.8-5.5-54.6 18.3-68.3l147.2-85c23.8-13.8 54.6-5.5 68.3 18.3l130 225.2c13.8 23.8 5.6 54.6-18.2 68.3z"  horiz-adv-x="1024" />

    
    <glyph glyph-name="wenjianjia3" unicode="&#46191;" d="M907.374433 7.891147000000046c0-34.918864-28.382328-63.301193-63.301193-63.301192H52.980346l110.777087 522.062825c0 34.918864 28.210314 63.301193 63.129179 63.301193h727.963716c34.918864 0 63.129179-28.382328 63.129178-63.301193l-110.605073-458.761633zM179.582731 577.601881h711.966404V639.698975c0 34.918864-28.382328 63.301193-63.301193 63.301193H448.6128V760.280867c0 34.918864-28.382328 63.301193-63.301192 63.301192H68.805644c-34.918864 0-63.301193-28.382328-63.301192-63.301192v-752.38972L116.109525 514.1286749999999c0 35.090879 28.554342 63.473207 63.473206 63.473206z m0 0"  horiz-adv-x="1024" />

    
    <glyph glyph-name="attchment" unicode="&#45947;" d="M503.140625 64.0078125c-36.14941406-35.78027344-84.19042969-55.52929688-135.31640625-55.52929688s-99.16699219 19.74902344-135.34277344 55.52929688c-36.14941406 35.83300781-56.05664063 83.45214844-56.05664062 134.12988281s19.90722656 98.32324219 56.05664062 134.15625L628.38476563 724.53222656l0.05273437-0.05273437a129.56835938 129.56835938 0 0 0 88.98925781 34.93652343c34.64648438 0 67.26269531-13.34179688 91.7578125-37.65234375a127.14257813 127.14257813 0 0 0 38.02148438-90.96679687 127.08984375 127.08984375 0 0 0-33.98730469-86.82714844h0.02636719l-0.71191406-0.76464844c-1.10742188-1.18652344-2.21484375-2.29394531-3.34863282-3.45410156l-1.34472656-1.34472656-383.03613281-377.41992188c-25.33886719-24.96972656-69.55664063-24.96972656-94.94824219 1e-8a65.49609375 65.49609375 0 0 0-19.66992187 46.93359375c0 17.69238281 6.98730469 34.33007813 19.66992187 46.828125l251.62207031 247.95703124-33.19628906 32.69531251-251.54296875-248.11523438a111.66503906 111.66503906 0 0 1 1.13378906-157.59667969 113.90625 113.90625 0 0 1 80.578125-32.87988281 114.75 114.75 0 0 1 79.57617188 31.74609375l4.74609375 4.53515625 0.07910156-0.07910156 379.10742188 371.80371093c33.5390625 33.24902344 52.07519531 77.49316406 52.07519531 124.58496094s-18.50976563 91.36230469-52.1015625 124.6640625C808.28808594 787.39160156 763.59570312 805.71679688 716.05566406 805.71679688s-92.25878906-18.32519531-125.85058593-51.65332032L201.68457031 369.18164062000005l-3.13769531-3.29589843C106.63085937 273.38964844 107.15820312 123.51855468999997 199.78613281 31.734375a238.9921875 238.9921875 0 0 1 169.30371094-69.47753906c63.28125 0 123.00292969 24.23144531 168.1171875 68.21191406l5.77441406 5.66894531 0.02636719-0.02636718 337.68457031 334.54687499-34.01367187 33.67089844-343.53808594-340.32128906z"  horiz-adv-x="1024" />

    
    <glyph glyph-name="qyxmmh" unicode="&#59420;" d="M0.129801 2.449993999999947v-91.769299c1.817214-21.02776 19.340347-37.382685 40.75751-37.382685 22.585372 0 40.887311 18.301939 40.887312 40.887311V-8.712891000000013c0 181.20218 146.675117 328.526302 327.228292 328.526302s327.098492-147.324122 327.098492-328.526302v-77.101788c0-22.585372 18.301939-40.887311 40.887311-40.887311 10.903283 0 21.287362 4.283433 28.945621 11.941691 7.658258 7.658258 11.941691 18.042337 11.941691 28.94562V-8.712891000000013c0 169.779693-103.321587 315.805806-250.126505 378.11028 76.842185 51.530993 127.464571 139.276461 127.464571 239.093421C695.214096 767.237419 567.10052 895.740398 408.873114 895.740398 250.905311 895.740398 122.661934 767.107618 122.661934 608.49081c0-99.687159 50.622386-187.562429 127.464571-239.093421C106.566612 308.39092400000004 4.543035 167.42705 0.129801 2.449993999999947z m204.306756 606.040816c0 113.316263 91.769299 205.474965 204.436557 205.474965s204.436557-92.158702 204.436558-205.474965c0-113.316263-91.769299-205.474965-204.436558-205.474965s-204.436557 92.158702-204.436557 205.474965zM902.636076 389.25694c37.123083 28.815819 64.121688 70.092534 74.635568 117.859298 17.912536 80.866016-14.537711 164.457853-82.164026 212.224616-44.262137 31.411839-99.427557 43.613132-152.905565 34.007859-21.157561-4.932438-34.656864-25.570795-30.892635-46.987958 3.764229-21.417163 23.62378-36.084675 45.170744-33.488655 32.060844 5.711244 65.030295-1.687413 91.639498-20.508556 40.627709-28.686019 60.097858-78.919001 49.324376-127.594372-10.773482-48.54557-49.454177-85.928255-98.389149-94.884522-3.115224-0.519204-5.970845-1.427811-8.826468-2.466219-14.40791 2.076816-29.205222 3.115224-44.132336 3.115223-22.585372 0-40.887311-18.301939-40.887311-40.887311s18.301939-40.887311 40.887311-40.887311c130.579795-0.389403 236.237799-106.436811 236.107999-237.016606V53.591583000000014c0-10.903283 4.283433-21.287362 11.941691-28.94562 7.658258-7.658258 18.042337-11.941691 28.94562-11.941691s21.287362 4.283433 28.945621 11.941691c7.658258 7.658258 11.941691 18.042337 11.941691 28.94562v58.150843c0.259602 119.027507-64.900494 222.608696-161.342629 277.514514z"  horiz-adv-x="1064" />

    
    <glyph glyph-name="glkb" unicode="&#59435;" d="M325.953712 771.539281c136.143914 72.67833 302.485162 59.882849 425.833595-38.386442-16.890034-55.276476 8.700927-115.159326 59.88285-140.750287s115.159326-12.795481 148.939394 34.291888c34.291888 47.087369 29.685515 110.552953-8.700927 153.545768s-102.363845 47.087369-148.939394 16.890034c-153.545768 115.159326-357.761639 132.04936-524.102887 38.386442 21.496407-17.401854 34.291888-42.992815 47.087369-63.977403zM113.036914 421.96675c0 55.276476 12.795481 106.458399 34.291888 157.640322h8.700927c55.276476 0 106.458399 38.386442 115.159325 97.757472S253.275382 788.429316 197.998905 809.9257230000001 87.445952 809.9257230000001 57.760437 762.838354 36.26403 652.285402 79.256845 613.89896c-51.181923-115.159326-51.181923-247.208686-4.094554-362.368012s136.143914-208.822244 251.30324-260.004166c0 25.590961 8.700927 55.276476 16.890034 76.772883-140.750287 63.977403-230.318651 204.72769-230.318651 353.667085z m775.406126 93.662918c51.181923-204.72769-72.67833-413.038115-276.894201-468.82641-25.590961 51.181923-84.961991 76.772884-140.750287 59.882849-55.276476-16.890034-89.568364-72.67833-80.867437-127.954806s55.276476-102.363845 115.159325-106.458399c55.276476-4.094554 106.458399 38.386442 119.25388 93.662918 123.348433 29.685515 225.712278 110.552953 289.689682 217.523171 63.977403 106.458399 80.867438 238.507759 51.181922 357.761639-21.496407-12.795481-47.087369-20.984588-76.772884-25.590962z"  horiz-adv-x="1024" />

    
    <glyph glyph-name="xmglsy" unicode="&#59421;" d="M268.833333 507.5h401v-82.333333H268.833333v82.333333z m0 170.666667h401v-80.666667H268.833333v80.666667z m0-341.333334h229.333334V256H268.833333v80.833333z m712.5-163.166666c-35 58.166667-34.333333 59.333333-34.333333 59.333333s-120.666667-33.833333-143 81.833333h-69.833333s-19.333333-115.833333-142.5-81.5c-35.666667-59.333333-36.833333-61.166667-36.833334-61.333333 0 0 96.5-67.333333 0-158.833333l37.5-61.5s106.5 46 141.333334-79.5H804.333333s22.166667 115.333333 142 81.166666c34.166667 58.166667 34.666667 58.833333 34.666667 58.833334s-90.666667 77.833333 0.333333 161.5z m-213.833333-161.833334c-45 0-81.5 36.5-81.5 81.5s36.5 81.5 81.5 81.5 81.5-36.5 81.5-81.5-36.5-81.5-81.5-81.5zM191-47.83333300000004c-37.833333 0-68.333333 30.666667-68.333333 68.333333V747.5c0 37.666667 30.666667 68.333333 68.333333 68.333333h556.666667c37.833333 0 68.333333-30.666667 68.333333-68.333333V362.66666699999996h80V810.666667C896 857.833333 857.833333 896 810.666667 896H128C80.833333 896 42.666667 857.833333 42.666667 810.666667v-853.333334c0-47.166667 38.166667-85.333333 85.333333-85.333333h392.5v80.166667H191z"  horiz-adv-x="1024" />

    
    <glyph glyph-name="xmdsj" unicode="&#59422;" d="M945.808603 468.508169c-4.097366 0-8.024008-0.341447-11.95065-0.682894l-127.359787 197.185729c19.974658 24.413471 31.925308 55.655885 31.925308 89.459153C838.594198 832.49083 775.085028 896 697.064355 896c-78.020674 0-141.529843-63.50917-141.529843-141.529843 0-44.729577 20.828276-84.678893 53.436478-110.628877L349.12971 123.98799599999995c-4.78026 0.512171-9.731244 0.853618-14.682228 0.853618-9.219073 0-18.438146-1.024341-27.315771-3.073024l-124.798933 196.33211c9.56052 15.535845 14.682227 33.461821 14.682227 51.729243 0 54.46082-44.046682 98.507503-98.507502 98.507503C44.046682 468.508169 0 424.290764 0 369.82994299999996c0-54.46082 44.046682-98.507503 98.507503-98.507502 3.755919 0 7.511837 0.170724 11.267755 0.682894l124.798933-196.332111c-16.560187-21.340447-26.29143-48.144048-26.29143-77.167055 0-69.825942 56.680227-126.335445 126.506169-126.335445 69.825942 0 126.506169 56.680227 126.506168 126.335445 0 33.803268-13.316439 64.362788-34.827609 87.069023l263.597199 527.535845c15.023675-0.682894 30.218073 0.853618 44.729577 4.950984l127.018339-196.844282c-9.389797-15.365122-14.34078-33.120373-14.34078-51.217072 0-54.46082 44.046682-98.507503 98.507502-98.507503 54.46082 0 98.507503 44.046682 98.507503 98.507503-0.170724 54.290097-44.217406 98.507503-98.678226 98.507502zM641.579193 754.470157c0 30.55952 24.925642 55.485162 55.485162 55.485161s55.485162-24.925642 55.485162-55.485161-24.925642-55.485162-55.485162-55.485162c-30.730243 0-55.485162 24.754918-55.485162 55.485162zM633.384461 729.203068"  horiz-adv-x="1044" />

    
    <glyph glyph-name="wdrw" unicode="&#59434;" d="M876.919476 895.714684H146.652549C65.908052 895.714684 0.570632 830.377264 0.570632 749.6327670000001v-730.266927C0.570632-61.23599899999999 65.908052-126.71607700000004 146.652549-126.71607700000004h730.266927c80.744497 0 146.081917 65.33742 146.081917 146.081917V749.6327670000001C1023.001393 830.377264 957.663973 895.714684 876.919476 895.714684z m73.183617-876.491502c0-19.401505-7.703539-37.94706-21.398719-51.64224-13.69518-13.69518-32.240736-21.398718-51.64224-21.25606H146.795208c-19.544163 0-37.94706 7.56088-51.784899 21.25606-13.837838 13.837838-21.541376 32.098077-21.541376 51.64224v730.409585c0.142658 40.372249 32.811368 73.183617 73.326275 73.183616h730.266926c19.401505 0 37.94706-7.703539 51.64224-21.398718 13.69518-13.69518 21.398718-32.383394 21.398719-51.784898v-730.409585z m0 0M831.411535 567.173029H539.247701c-20.114795 0-36.520479-16.405684-36.520479-36.52048 0-20.114795 16.405684-36.520479 36.520479-36.520479h292.163834c20.114795 0 36.520479 16.263026 36.520479 36.520479 0 20.114795-16.263026 36.520479-36.520479 36.52048z m0-292.306492H539.247701c-20.114795 0-36.520479-16.263026-36.520479-36.52048 0-20.114795 16.405684-36.520479 36.520479-36.520479h292.163834c20.114795 0 36.520479 16.263026 36.520479 36.520479 0 20.257453-16.263026 36.520479-36.520479 36.52048z m-511.144051 91.301198c-70.61577 0-127.821677-57.205907-127.821677-127.821678 0-70.61577 57.205907-127.821677 127.821677-127.821677 70.61577 0 127.821677 57.205907 127.821677 127.821677-0.142658 70.61577-57.348565 127.821677-127.821677 127.821678z m38.660351-166.624687c-18.545556-18.545556-47.505155-21.398718-69.189189-6.84759-21.684035 14.551128-30.243522 42.369462-20.114795 66.621343 9.986069 24.109223 35.664531 37.94706 61.342992 32.811368 25.678462-5.135692 44.08136-27.675676 44.08136-53.782112 0-14.551128-5.706325-28.531624-16.120368-38.803009z m45.079967 429.828922l-120.260797-120.260797-47.219839 47.219838c-9.272778 9.272778-22.682641 12.839231-35.236556 9.415436-12.553915-3.423795-22.397325-13.267205-25.82112-25.82112-3.423795-12.553915 0.285316-25.963778 9.415436-35.236556l73.040959-73.040958c6.84759-6.84759 16.120368-10.699359 25.82112-10.699359 9.700752 0 18.97353 3.851769 25.82112 10.699359L455.650042 577.72973c14.123154 14.265812 13.980496 37.23377-0.142658 51.356924-14.265812 14.265812-37.23377 14.265812-51.499582 0.285316z m0 0"  horiz-adv-x="1024" />

    
    <glyph glyph-name="yh" unicode="&#59418;" d="M968.499613 64.875c-50.375 118.75-144.875 213.25-263.625 263.625-11.75 5-23.5 9.375-35.5 13.375 88.25 54.5 142 150.875 142 254.625C811.374613 761.75 677.124613 896 511.999613 896S212.624613 761.75 212.624613 596.625c0-103.75 53.75-200.125 142-254.625-12-4-23.75-8.5-35.5-13.375C135.624613 251.125 16.374613 71.25 16.499613-128h72.125c0 233.375 189.875 423.375 423.375 423.375 233.5 0 423.375-189.875 423.375-423.375h72.125c0.125 66.25-13.125 131.875-39 192.875z m-683.75 531.75c0 125.375 102 227.25 227.25 227.25 125.375 0 227.25-102 227.25-227.25s-102-227.25-227.25-227.25c-125.375 0-227.25 101.875-227.25 227.25z m0 0"  horiz-adv-x="1024" />

    
    <glyph glyph-name="mima" unicode="&#59419;" d="M861.227258 523.662381h-69.83119v93.155953C791.396068 770.790386 666.043357 896 512.071305 896 357.956157 896 232.603446 770.790386 232.603446 616.818334v-93.155953H162.772255C124.136146 523.662381 92.941065 492.4673 92.941065 453.831191v-512c0-38.493013 31.338178-69.831191 69.83119-69.831191h698.455003c38.63611 0 69.831191 31.195081 69.831191 69.831191V453.831191c0.143097 38.493013-31.195081 69.831191-69.831191 69.83119z m-558.792621 93.155953c0 115.479039 94.014533 209.493572 209.493571 209.493572 115.622135 0 209.493572-94.014533 209.493572-209.493572v-93.155953H302.29154v93.155953h0.143097z m558.792621-674.987143H162.772255V453.831191h698.455003v-512zM512.071305 69.902739c19.318055 0 34.915595 15.597541 34.915595 34.915595V290.98714399999994c0 19.318055-15.597541 34.915595-34.915595 34.915595-19.318055-0.143097-34.915595-15.740637-34.915595-34.915595v-186.16881c0-19.318055 15.597541-34.915595 34.915595-34.915595z"  horiz-adv-x="1024" />

    
    <glyph glyph-name="bimsc" unicode="&#59423;" d="M1024 827.733333C1024 865.466667 993.466667 896 955.733333 896H68.266667C30.533333 896 0 865.466667 0 827.733333v-887.466666C0-97.46666700000003 30.533333-128 68.266667-128h887.466666c37.733333 0 68.266667 30.533333 68.266667 68.266667V827.733333z m-68.266667-887.466666H68.266667V827.733333h887.466666v-887.466666z m-68.266666 401.466666c0 42.266667-34.266667 76.4-76.4 76.4H569.2c-42.266667 0-76.4-34.266667-76.4-76.4v-256.666666c0-42.266667 34.133333-76.4 76.4-76.4h241.733333c42.266667 0 76.4 34.266667 76.4 76.4V341.733333z m-68.266667-256.8c0-4.533333-3.733333-8.133333-8.133333-8.133333H569.2c-4.533333 0-8.133333 3.733333-8.133333 8.133333V341.733333c0 4.533333 3.733333 8.133333 8.133333 8.133334h241.733333c4.533333 0 8.133333-3.733333 8.133334-8.133334v-256.8zM204.8 349.866667M336.4 418.133333H213.333333c-42.266667 0-76.4-34.266667-76.4-76.4v-256.666666c0-42.266667 34.133333-76.4 76.4-76.4h123.066667c42.266667 0 76.4 34.266667 76.4 76.4V341.733333c0 42.133333-34.266667 76.4-76.4 76.4z m8.133333-333.2c0-4.533333-3.733333-8.133333-8.133333-8.133333H213.333333c-4.533333 0-8.133333 3.733333-8.133333 8.133333V341.733333c0 4.533333 3.733333 8.133333 8.133333 8.133334h123.066667c4.533333 0 8.133333-3.733333 8.133333-8.133334v-256.8zM67.333333 572.4h888.4v-68.266667H67.333333zM677.066667 749.733333c27.466667 0 49.6-22.266667 49.6-49.6 0-27.466667-22.266667-49.6-49.6-49.6-27.466667 0-49.6 22.266667-49.6 49.6 0 27.333333 22.266667 49.6 49.6 49.6zM830.4 749.733333c27.466667 0 49.6-22.266667 49.6-49.6 0-27.466667-22.266667-49.6-49.6-49.6-27.466667 0-49.6 22.266667-49.6 49.6 0 27.333333 22.266667 49.6 49.6 49.6z"  horiz-adv-x="1024" />

    
    <glyph glyph-name="czpt" unicode="&#59436;" d="M817.097609 499.360223h-1.4242c-14.526843-0.99694-25.208345-5.411961-40.162448-14.811683-13.245063 38.453408-57.252851 66.082893-89.867038 66.082893-19.084284 0-37.171627-5.411961-52.26815-14.811683-13.245063 38.453408-39.592768 66.082893-82.746036 66.082893-16.805563 0-32.471766-4.272601-46.286509-11.678443v98.8395c0 53.834771-40.732128 97.415299-94.994158 97.415299s-98.127399-43.580529-98.1274-97.415299v-378.410014l-59.673991 59.389151c-38.310987 38.026147-106.245341 32.614186-138.859527 0-32.614186-32.614186-54.119611-98.412239-7.263422-145.126008L379.583284-47.53268400000002c5.696801-5.554381 11.820862-10.254242 18.372183-14.242003 49.98943-40.732128 107.242281-64.943533 228.441725-64.943533 276.722114 0 280.994715 149.256189 280.994715 333.547705V401.802503c0.14242 53.977191-36.032267 97.557719-90.294298 97.55772z m24.496245-292.388318c0-155.80751 34.892907-267.892072-215.054242-267.892072-105.960501 0-155.23783 9.399722-203.3758 57.110431L163.532101 254.112935c-22.929624 22.929624-25.778025 46.571349-6.978581 65.370792 18.799444 18.799444 47.568289 10.966342 65.798053-7.121001l84.739917-84.312656c29.765786-29.480946 70.070654-55.401391 70.070653-55.401391V666.561335c0 25.493185 6.551321 41.871488 32.329347 41.871488 25.635605 0 29.053686-36.744367 29.053685-57.964951v-286.976356c0-18.087344 18.514604-28.341586 32.756607-28.341586s33.183866 10.396662 33.183866 27.344646v131.738526c0 25.493185 12.248122 46.144089 37.883727 46.144089 0 0 37.598887 0.56968 37.598888-46.144089v-174.464535c0-14.099583 15.666203-25.635605 29.908206-25.635605s28.911266 11.536022 28.911265 25.635605v123.193325c0 25.493185 12.817803 46.144089 38.453408 46.144089 0 0 37.741307-0.28484 37.741307-46.144089V290.002782c0-16.378303 18.372184-26.632545 32.614187-26.632546s32.614186 10.681502 32.614186 28.341586v103.96662c0 25.493185 4.984701 46.144089 30.620306 46.144089 0 0 30.762726 3.845341 30.762726-46.144089v-188.706537zM281.455885 549.492072v86.164117c-8.260362 18.372184-12.817803 38.738248-12.817803 60.101252 0 81.749096 57.680111 139.429207 139.429207 139.429207 81.749096 0 139.429207-57.680111 139.429207-139.429207 0-11.108762-1.28178-21.932684-3.70292-32.471766 18.657024-0.7121 44.007789-8.402782 56.113491-20.793325 4.699861 16.947983 7.548261 34.750487 7.548261 53.265091 0 110.090682-89.297357 199.388039-199.388039 199.388039s-199.388039-89.297357-199.388039-199.388039c0-57.964951 24.923505-109.948261 64.373853-146.407789h8.402782z m-8.545202 0"  horiz-adv-x="1024" />

    
    <glyph glyph-name="xxgg" unicode="&#3713;" d="M960.1875 629.375c-39.75 70.875-96.5 130.5-161.625 173-8.5 5.625-14.125 8.5-22.75 8.5-19.875 0-34-17-34-36.875 0-14.125 5.625-25.5 19.875-34 119.125-73.75 192.875-209.875 192.875-354.625 0-144.625-73.75-280.875-192.875-354.625-8.5-5.625-19.875-17-19.875-34 0-19.875 14.125-36.875 34-36.875 8.5 0 14.125 2.875 19.875 5.625 68.125 42.5 124.75 102.125 164.5 173 39.75 76.625 62.375 161.625 62.375 246.75 0 85.25-22.625 170.375-62.375 244.125z m-124.75-244c0 51-11.375 99.25-36.875 144.625-22.75 42.5-56.75 76.625-96.5 102.125 0 0-11.375 5.625-19.875 5.625-19.875 0-34-17-34-36.875 0-14.125 5.625-25.5 17-31.25 62.375-36.875 99.25-107.75 99.25-184.375s-39.75-147.5-105-184.375c-11.375-5.625-17-17-17-31.25 0-19.875 14.125-36.875 34-36.875 8.5 0 17 5.625 17 5.625 88 48.5 142 144.875 142 247zM548.9375 890.375c-5.625 2.875-11.375 5.625-17 5.625-8.5 0-19.875-2.875-25.5-8.5-5.625-5.625-59.625-51-119.125-96.5-107.75-85.125-139-99.25-144.625-102.125H35.4375C15.5625 688.875 1.4375 671.875 1.4375 652V116c0-19.875 14.125-36.875 34-36.875h232.625c5.625-2.875 36.875-17 130.5-99.25 31.25-28.375 68.125-62.375 105-93.625l2.875-2.875c8.5-8.5 17-11.375 28.375-11.375 5.625 0 11.375 0 17 2.875 14.125 8.5 25.5 22.75 25.5 39.75V96.125c0 2.875-2.875 743.125-2.875 751.75-2.875 22.625-11.375 36.75-25.5 42.5z m-45.375-783v-116.25c-17 17-34 31.25-51 45.375-127.625 110.625-161.625 119.125-184.375 119.125H95.0625c-19.875 0-25.5 5.625-25.5 28.375V592.5c0 17 2.875 22.75 17 22.75h156c22.75 0 53.875 8.5 195.75 119.125 22.75 17 45.375 34 65.25 51v-678z m0 0"  horiz-adv-x="1024" />

    
    <glyph glyph-name="gcqz" unicode="&#59439;" d="M271.728105 171.570196c0-22.086275 17.936732-40.023007 40.023006-40.023006h400.497778c22.086275 0 40.023007 17.936732 40.023006 40.023006s-17.936732 40.023007-40.023006 40.023007H311.751111c-22.086275 0-40.023007-17.936732-40.023006-40.023007z m0 160.092026c0-22.086275 17.936732-40.023007 40.023006-40.023006h400.497778c22.086275 0 40.023007 17.936732 40.023006 40.023006s-17.936732 40.023007-40.023006 40.023007H311.751111c-22.086275 0-40.023007-17.936732-40.023006-40.023007z m192.08366 378.143791c0 25.43268 21.55085 45.91268 48.188235 45.91268s48.188235-20.613856 48.188235-45.91268v-124.753987c0-25.43268-21.55085-45.91268-48.188235-45.91268s-48.188235 20.613856-48.188235 45.91268v124.753987z m-72.148497 8.968366v-142.28915c1.204706-66.660392 54.613333-120.336732 120.336732-120.336732 65.723399 0 119.265882 53.67634 120.336732 120.336732V718.774379c0 67.731242-53.944052 122.612288-120.336732 122.612288-66.526536 0-120.336732-54.881046-120.336732-122.612288zM195.296209 571.2648369999999h196.367059v77.636601H126.895686c-53.140915 0-96.242614-43.101699-96.242614-96.242614v-529.66902c0-53.140915 43.101699-96.242614 96.242614-96.242614h770.342484c53.140915 0 96.242614 43.101699 96.242614 96.242614V552.5249670000001c0 53.140915-43.101699 96.242614-96.242614 96.242615H632.336732v-77.636602h201.721307c45.243399 0 81.786144-36.676601 81.786144-81.92v-403.308758c0-45.243399-36.676601-81.92-81.786144-81.92H195.296209c-45.243399 0-81.786144 36.676601-81.786144 81.92V489.344837c0 45.243399 36.542745 81.92 81.786144 81.92z m0 0"  horiz-adv-x="1024" />

    
    <glyph glyph-name="gcsp" unicode="&#59453;" d="M649.871895 701.774641c-14.054902 14.456471-37.212026 14.991895-51.802353 0.936993l-87.274248-84.195556-84.061699 83.793987c-14.322614 14.322614-37.479739 14.322614-51.936209 0-14.322614-14.322614-14.322614-37.479739 0-51.802353l82.856993-82.589281h-56.48732c-20.212288 0-36.676601-16.464314-36.676601-36.542745 0-20.212288 16.464314-36.542745 36.676601-36.542745h73.08549V458.290196h-73.08549c-20.212288 0-36.676601-16.464314-36.676601-36.542745 0-20.212288 16.464314-36.542745 36.676601-36.542745h73.08549v-75.093333c0-20.212288 16.464314-36.542745 36.676601-36.542746s36.676601 16.330458 36.676602 36.542746v75.093333h73.620915c20.212288 0 36.676601 16.464314 36.676601 36.542745 0 20.212288-16.330458 36.542745-36.676601 36.542745h-73.620915v36.542745h73.620915c20.212288 0 36.676601 16.464314 36.676601 36.542745 0 20.212288-16.330458 36.542745-36.676601 36.542745H563.534641l85.266405 82.321569c14.724183 13.78719 15.125752 36.944314 1.070849 51.534641z m0 0M983.709281 125.52365999999995c-23.424837 9.637647-91.825359 37.479739-162.233725 64.920262 71.077647 77.235033 111.769935 179.099608 111.769934 284.444444C933.111634 707.128889 743.97281 896 511.598431 896 279.090196 896 90.085229 707.128889 90.085229 475.022222c0-18.472157 1.204706-37.07817 3.480261-54.881046 2.677124-19.944575 21.149281-33.999477 41.093856-31.590065 20.078431 2.677124 34.26719 21.015425 31.590066 41.093856-2.007843 14.991895-2.944837 30.251503-2.944837 45.377255 0 191.815948 156.210196 347.892288 348.293856 347.892288 191.949804 0 348.16-155.942484 348.16-347.892288 0-96.911895-39.086013-186.997124-110.029804-253.389804-0.936993-0.803137-1.204706-2.007843-2.007843-2.81098-48.991373 18.338301-90.888366 32.527059-107.486536 35.070327-28.511373 4.417255-55.818039-8.700654-72.282353-33.062484-13.78719-20.346144-17.267451-44.440261-9.236078-64.384837 4.95268-12.180915 23.558693-37.613595 45.644967-65.455686-53.140915 0.133856-134.391634 7.228235-220.862745 40.558432-35.739608 13.78719-79.510588 60.235294-118.195032 101.195294-55.014902 58.227451-106.817255 113.376209-163.304576 113.376209-21.015425 0-40.96-7.897516-57.55817-22.6217C23.558693 305.02483700000005 4.149542 268.214379 30.786928 198.47529399999996 79.376732 69.97333300000003 269.452549-128 421.914771-128h547.605752c20.212288 0 36.676601 16.330458 36.676601 36.542745V91.65803900000003c0.133856 14.858039-8.83451 28.24366-22.487843 33.865621zM421.780915-54.91450999999995h0.267712c-111.769935 0-282.972026 174.013072-322.861176 279.090196-11.511634 30.519216-7.629804 42.833987-6.157386 44.172549 4.684967 4.283399 7.362092 4.283399 8.968366 4.283399 24.763399 0 73.888627-52.203922 109.895948-90.219085 46.046536-48.857516 93.699346-99.455163 144.966275-119.265882 97.581176-37.613595 188.871111-45.644967 248.169411-45.644968 47.385098 0 77.368889 5.086536 78.573595 5.086536 12.984052 2.275556 23.826405 11.243922 28.24366 23.558693 4.551111 12.314771 2.141699 26.235817-6.291242 36.275033-30.920784 36.676601-67.061961 82.187712-76.96732 97.581176 0.401569 0.669281 0.535425 1.204706 0.401569 1.338562 26.235817-4.015686 186.060131-66.258824 303.853595-114.313202v-121.943007H422.048627"  horiz-adv-x="1024" />

    
    <glyph glyph-name="gcbg" unicode="&#59452;" d="M955.854481 462.854101V788.524781c0 19.989352-16.614527 34.916466-34.916466 34.916466H555.418431c-19.989352 0-34.916466-16.614527-34.916466-34.916466v-323.983268c0-19.989352 16.614527-34.916466 34.916466-34.916465h363.832171c19.989352-1.557612 36.603879 13.369502 36.603879 33.229053z m-67.496514 249.866903v-174.063126c0-23.883382-18.821143-44.391938-44.391938-44.391938H630.703004c-23.883382 0-44.391938 18.821143-44.391938 44.391938V712.721004c0 23.883382 18.821143 44.391938 44.391938 44.391938h213.263025c25.570795-1.687413 44.391938-20.508556 44.391938-44.391938zM482.340474 339.023957H118.508303c-19.989352 0-34.916466-16.614527-34.916466-34.916466v-323.983267c0-19.989352 16.614527-34.916466 34.916466-34.916466h363.832171c19.989352 0 34.916466 16.614527 34.916466 34.916466V302.54988000000003c0 19.859551-14.927114 36.474078-34.916466 36.474077z m-32.190645-112.148054v-172.765116c0-24.013183-18.821143-44.521739-44.521739-44.521739H193.533274c-24.013183 0-44.521739 18.821143-44.521739 44.521739V226.875903c0 24.013183 18.821143 44.521739 44.521739 44.521739h213.91203c23.883382 0 42.704525-18.821143 42.704525-44.521739zM286.340981 539.306883h-64.770693V555.9214099999999c0 103.061985 81.38522 186.134618 179.384966 186.134617h21.546964V823.441247h-21.546964C261.419191 823.441247 146.675117 703.894537 146.675117 557.6088219999999v-16.614526l-16.614526-1.687413H73.597161l106.307009-124.608949 106.436811 124.608949z m598.122956-186.004817l-106.30701-124.608949h64.770694v-16.614527c-1.687413-103.061985-83.072633-186.134618-181.07238-186.134617h-21.546964V-55.441246999999976h21.546964c139.536063 0 254.150336 119.676512 254.150336 265.832425v16.614526l16.614527 1.687413h58.150843l-106.30701 124.608949z m0 0"  horiz-adv-x="1064" />

    
    <glyph glyph-name="bgsq" unicode="&#59451;" d="M729.51634-41.79660100000001c0-2.409412-0.936993-4.551111-2.543268-6.291242-1.606275-1.606275-3.88183-2.543268-6.291242-2.543268H86.471111c-2.409412 0-4.551111 0.936993-6.291242 2.543268-1.606275 1.606275-2.543268 3.88183-2.543268 6.291242V809.796601c0 2.409412 0.936993 4.551111 2.543268 6.291242 1.606275 1.606275 3.88183 2.543268 6.291242 2.543268h634.210719c2.409412 0 4.551111-0.936993 6.291242-2.543268 1.606275-1.606275 2.543268-3.88183 2.543268-6.291242v-129.974379h77.636601V823.182222C807.019085 863.472941 774.224314 896 734.067451 896H73.08549C32.794771 896 0.133856 863.472941 0 823.182222v-878.364444C0.133856-95.47294099999999 32.794771-128 73.08549-128h660.981961c40.290719 0 72.951634 32.527059 73.08549 72.817778V78.13856199999998h-77.636601v-119.935163z m0 0M845.703529 665.231895c-8.031373-1.204706-15.259608-5.220392-20.48-11.377777L499.417516 258.175163c-3.078693-3.88183-5.220392-8.299085-6.558954-12.984052l-50.062222-212.295948c-2.677124-9.771503-0.535425-20.212288 5.755817-28.109804 6.291242-8.031373 15.795033-12.582484 25.968104-12.314771 4.417255 0 8.700654 0.936993 12.850197 2.543268l201.319738 87.541961c4.95268 2.141699 9.236078 5.488105 12.582484 9.771503l316.302222 414.017255c4.95268 6.69281 7.228235 14.991895 6.291242 23.290981-11.913203 86.471111-91.557647 147.24183-178.162615 135.596339zM519.897516 80.14640499999996l27.172811 116.321046c40.692288 3.346405 76.833464-25.700392 82.321568-66.124967-0.133856-0.401569-0.133856-0.936993 0-1.338562l-109.494379-48.857517z m162.903007 95.037909c-18.338301 42.164706-55.951895 72.817778-101.061438 82.187712l201.721307 244.823007c44.574118 2.677124 84.864837-26.503529 95.841046-69.872941L682.800523 175.18431399999997z m241.342745 315.097516c-10.306928 17.133595-23.826405 32.12549-39.755294 44.172549-15.795033 11.913203-33.597908 20.881569-52.60549 26.235817l34.401045 41.896994c42.700131-0.267712 79.912157-28.779085 91.423791-69.872942l-33.464052-42.432418zM242.681307 336.21333300000003c-12.047059 1.07085-23.692549-4.818824-30.117647-15.125751-6.291242-10.306928-6.291242-23.29098 0-33.731765 6.291242-10.306928 17.936732-16.196601 30.117647-15.125752h141.218301c12.047059-1.07085 23.692549 4.818824 30.117647 15.125752 6.425098 10.306928 6.425098 23.29098 0 33.731765-6.291242 10.306928-17.936732 16.196601-30.117647 15.125751H242.681307z m340.931765 141.887582c0 17.802876-14.322614 32.12549-32.12549 32.12549H242.681307c-12.047059 1.07085-23.692549-4.818824-30.117647-15.125751-6.291242-10.306928-6.291242-23.29098 0-33.731765 6.291242-10.306928 17.936732-16.196601 30.117647-15.125752H551.487582c8.432941 0 16.59817 3.212549 22.755555 9.236079 6.023529 6.023529 9.369935 14.188758 9.369935 22.621699z m-32.12549 199.178039H242.681307c-17.66902 0-32.12549-14.322614-32.12549-32.12549 0-17.66902 14.322614-32.12549 32.12549-32.12549H551.487582c17.66902 0 32.12549 14.322614 32.12549 32.12549s-14.322614 32.12549-32.12549 32.12549z m0 0"  horiz-adv-x="1024" />

    
    <glyph glyph-name="cqzf" unicode="&#59450;" d="M925.080261 568.052288v108.423529H98.919739v-108.423529h826.160522z m0-74.290196H98.919739v-430.08h826.160522V493.762092z m-839.546143 257.003921h852.931764c33.597908 0 60.904575-27.306667 60.904576-60.904575v-639.698824c0-33.597908-27.306667-60.904575-60.904576-60.904575H85.534118c-33.597908 0-60.904575 27.306667-60.904576 60.904575V689.861438c0 16.196601 6.425098 31.590065 17.802876 43.101699 11.511634 11.377778 27.038954 17.802876 43.1017 17.802876z m114.982483-345.34902h223.138301c20.613856 0 37.212026-16.732026 37.212026-37.212026 0-20.613856-16.732026-37.212026-37.212026-37.212026H200.516601c-20.613856 0-37.212026 16.732026-37.212026 37.212026 0.133856 20.48 16.732026 37.212026 37.212026 37.212026z m0-148.714248h148.714249c20.613856 0 37.212026-16.732026 37.212026-37.212026s-16.732026-37.212026-37.212026-37.212026H200.516601c-20.613856 0-37.212026 16.732026-37.212026 37.212026 0.133856 20.48 16.732026 37.212026 37.212026 37.212026z"  horiz-adv-x="1024" />

    
    <glyph glyph-name="htzf" unicode="&#3714;" d="M268.833333 507.5h401v-82.333333H268.833333zM268.833333 336.83333300000004h229.333334V256H268.833333zM268.833333 678.166667h401v-80.666667H268.833333zM525-47.83333300000004H191c-37.833333 0-68.333333 30.666667-68.333333 68.333333V747.5c0 37.666667 30.666667 68.333333 68.333333 68.333333h556.666667c37.833333 0 68.333333-30.666667 68.333333-68.333333v-389.666667c29.5-8 56.666667-18.666667 80-37.166666v490C896 857.833333 857.833333 896 810.666667 896H128C80.833333 896 42.666667 857.833333 42.666667 810.666667v-853.333334c0-47.166667 38.166667-85.333333 85.333333-85.333333h470.666667c-27.5 21.166667-58.333333 48.666667-73.666667 80.166667zM839 84.16666699999996c9.833333 0 16.333333 6.5 16.333333 16.333333s-6.5 16.333333-16.333333 16.333333h-52.333333l65.5 65.5c6.5 6.5 6.5 16.333333 0 22.833334s-16.333333 6.5-23 0l-68.833334-65.5-68.666666 65.5c-6.5 6.5-16.333333 6.5-22.833334 0s-6.5-16.333333 0-22.833334l65.5-65.5h-52.333333c-9.833333 0-16.333333-6.5-16.333333-16.333333s6.5-16.333333 16.333333-16.333333h62.166667v-26.166667h-62.166667c-9.833333 0-16.333333-6.5-16.333333-16.333333s6.5-16.333333 16.333333-16.333334h62.166667v-52.333333c0-9.833333 6.5-16.333333 16.333333-16.333333s16.333333 6.5 16.333333 16.333333v52.333333h62.166667c9.833333 0 16.333333 6.5 16.333333 16.333334s-6.5 16.333333-16.333333 16.333333h-62.166667v26.166667h62.166667zM757.333333 314.33333300000004c-121.666667 0-218.333333-96.666667-218.333333-218.333333s96.666667-218.333333 218.333333-218.333333 218.333333 96.666667 218.333334 218.333333-96.666667 218.333333-218.333334 218.333333z m164.5-218.333333c0-90.5-74-164.5-164.5-164.5-90.5 0-164.5 74-164.5 164.5 0 90.5 74 164.5 164.5 164.5 90.5 0 164.5-74 164.5-164.5z"  horiz-adv-x="1024" />

    
    <glyph glyph-name="jddb" unicode="&#59438;" d="M999.650814-45.44625399999995H61.70684V862.811726C61.70684 880.990228 44.695765 895.66645 31.020195 895.66645 17.511401 895.66645 0 880.990228 0 862.811726v-957.623452c0-18.178502 11.007166-32.687948 24.515961-32.687948h974.968078c13.508795 0 24.515961 23.348534 24.515961 41.36026 0.166775 18.011726-10.840391 40.69316-24.349186 40.69316z m0 0M806.525081 204.71661200000005v-145.094462H148.096417v145.094462h658.428664z m146.26189 290.188925v-145.094462H148.096417v145.094462h804.690554zM660.263192 765.248208v-141.758957H148.096417v141.758957h512.166775z m0 0"  horiz-adv-x="1024" />

    
    <glyph glyph-name="jdyj" unicode="&#59437;" d="M141.753725 88.17777799999999h102.266144c17.802876 0 32.259346 14.456471 32.259347 32.259346V576.351373c0 17.802876-14.456471 32.259346-32.259347 32.259346h-102.266144c-17.802876 0-32.259346-14.456471-32.259346-32.259346v-455.914249c0-17.802876 14.456471-32.259346 32.259346-32.259346zM933.647059 409.834248V751.435294c0 24.227974-14.456471 43.904837-32.259347 43.904837H799.121569c-17.802876 0-32.259346-19.676863-32.259347-43.904837v-268.113987c61.038431-3.480261 123.281569-18.204444 166.784837-73.487059zM605.030065 444.904575V801.899085c0 26.101961-14.456471 47.251242-32.259346 47.251242h-102.266144c-17.802876 0-32.259346-21.149281-32.259346-47.251242v-666.470065c0-26.101961 14.456471-47.251242 32.259346-47.251242H489.913725V263.93098c0 62.644706 50.999216 153.265359 115.11634 180.973595zM441.056209 7.596340000000055H44.306405C19.810719 7.596340000000055 0-12.348235000000045 0-36.84392200000002 0-61.20575199999996 19.810719-81.15032699999995 44.306405-81.15032699999995h396.749804c-10.842353 10.842353-19.141438 25.566536-19.141438 45.644968 0 15.259608 11.377778 37.747451 19.141438 43.101699zM979.693595 7.328626999999983h-13.653334V211.99477100000001c0 113.376209-91.825359 205.201569-205.201568 205.201569-113.376209 0-205.201569-91.825359-205.201569-205.201569v-204.666144h-14.322614c-24.495686 0-44.306405-19.810719-44.306405-44.306405s19.810719-44.306405 44.306405-44.306405h438.111372c24.495686 0 44.306405 19.810719 44.306406 44.306405 0.267712 24.495686-19.543007 44.306405-44.038693 44.306405zM630.99817 211.32548999999995c0 71.613072 57.959739 129.57281 129.57281 129.572811S890.143791 282.93856200000005 890.143791 211.32548999999995v-192.351372H630.99817V211.32548999999995zM770.877908 289.095948l-67.06196-125.824837h48.72366v-97.715033l65.455686 121.006014h-47.117386z"  horiz-adv-x="1024" />

    
    <glyph glyph-name="jdcb" unicode="&#59454;" d="M801.397124 404.212288c-105.478693 0-222.602876-31.188497-222.602876-78.172027v-329.018562c0-46.448105 102.667712-77.636601 221.532027-78.172026h1.873986c118.99817 0.535425 221.532026 31.723922 221.532027 78.172026V326.040261c0.267712 46.983529-120.202876 78.172026-222.335164 78.172027z m169.997386-388.718432c-15.393464-15.393464-72.014641-36.275033-169.997386-36.542745-97.982745 0.267712-154.603922 21.149281-169.997385 36.542745v77.636602c41.093856-25.834248 102.132288-36.141176 169.060392-36.542746h1.873987c66.794248 0.267712 127.966536 10.708497 169.060392 36.542746v-77.636602z m-169.997386 182.446013h0.936994c65.455686 1.204706 134.391634 16.464314 174.41464 41.629281v-70.274509c-5.086536-20.613856-74.825621-55.951895-175.351634-57.55817-100.526013 1.606275-170.265098 36.944314-175.351634 57.55817v70.274509c40.023007-25.164967 108.825098-40.424575 174.414641-41.629281h0.936993z m175.351634 107.486536c-5.086536-20.881569-72.148497-51.936209-175.351634-52.337778-103.203137 0.401569-170.265098 31.456209-175.351634 52.337778v2.1417c10.306928 15.795033 72.014641 42.432418 175.351634 42.70013 103.336993-0.267712 165.044706-26.905098 175.351634-42.70013v-2.1417zM141.753725 88.17777799999999h102.266144c17.802876 0 32.259346 14.456471 32.259347 32.259346V576.351373c0 17.802876-14.456471 32.259346-32.259347 32.259346h-102.266144c-17.802876 0-32.259346-14.456471-32.259346-32.259346v-455.914249c0-17.802876 14.456471-32.259346 32.259346-32.259346zM933.647059 433.526797V751.435294c0 24.227974-14.456471 43.904837-32.259347 43.904837H799.121569c-17.802876 0-32.259346-19.676863-32.259347-43.904837V454.140654c3.88183 0.133856 7.76366 0.133856 11.64549 0.133856 52.471634 0 109.360523-7.495948 155.139347-20.747713zM605.030065 428.172549V801.899085c0 26.101961-14.456471 47.251242-32.259346 47.251242h-102.266144c-17.802876 0-32.259346-21.149281-32.259346-47.251242v-666.470065c0-26.101961 14.456471-47.251242 32.259346-47.251242h62.376994v279.759477c0 24.629542 29.180654 45.377255 72.148496 60.235294zM777.436863-81.15032699999995h2.141699-2.141699zM605.030065-81.15032699999995c-47.518954 7.362092-72.148497 34.936471-72.148496 86.203399v2.543268h-488.575164C19.810719 7.596340000000055 0-12.348235000000045 0-36.84392200000002 0-61.20575199999996 19.810719-81.15032699999995 44.306405-81.15032699999995h538.637386"  horiz-adv-x="1024" />

    
    <glyph glyph-name="clrw" unicode="&#59455;" d="M1012.155 408.484c13.468 8.228 17.729 25.779 9.5 39.27-8.207 13.487-25.799 17.708-39.268 9.483l-0.628-0.375c-13.939 5.773-17.003 12.958-18.102 15.651-6.736 16.863 4.063 45.217 12.586 61.101l34.752 19.005a28.61 28.61 0 0 1 14.863 24.993 28.63 28.63 0 0 1-14.727 25.074L609.789 825.183c-8.423 4.652-18.596 4.792-27.116 0.315L61.03 551.991c-0.59-0.315-1.099-0.688-1.651-1.022-0.236-0.158-0.511-0.236-0.725-0.373-0.295-0.176-0.531-0.373-0.807-0.57l-0.157-0.096c-76.69-51.05-53.267-132.907-30-169.21 1.453-2.258 3.299-4.184 5.301-5.949-21.716-19.713-29.412-41.351-31.865-57.294-7.717-50.243 26.644-93.832 30.57-98.642 1.863-2.259 4.043-4.243 6.519-5.832L462-62.36800000000005a28.463 28.463 0 0 1 15.57-4.633c5.105 0 10.191 1.374 14.746 4.104l519.719 313.127c13.509 8.148 17.867 25.702 9.72 39.229-8.146 13.528-25.72 17.867-39.229 9.72l-7.325-4.419c-4.867 3.79-8.48 8.385-10.699 14.196-8.776 22.933 2.118 58.431 9.444 76.2l38.209 23.328z m-101.629 43.018c3.357-8.442 8.914-18.103 18.024-27.116l-445.798-272.07L72.947 416.457c-7.146 13.291-21.695 48.239 4.025 75.572l383.791-224.617a28.354 28.354 0 0 1 14.432-3.927c4.711 0 9.425 1.179 13.705 3.493l416.011 227.623c-1.179-14.198 0-28.961 5.615-43.099z m0.51-162.769c3.417-8.913 8.089-17.042 13.862-24.269L478.139-4.72199999999998 73.675 258.106c-5.499 7.951-19.224 30.235-16.1 50.695 1.826 11.742 9.365 21.794 23.089 30.767 0.981 0.647 1.825 1.453 2.71 2.197L466.851 94.59000000000003a28.496 28.496 0 0 1 15.49-4.556 28.628 28.628 0 0 1 14.885 4.165l407.449 248.686c-1.51-17.711-0.312-36.519 6.361-54.152z"  horiz-adv-x="1025" />

    
    <glyph glyph-name="fx" unicode="&#3715;" d="M824.32-115.71199999999999H199.68c-69.12 0-124.928 55.808-124.928 124.928v624.64c0 69.12 55.808 124.928 124.928 124.928h93.696V821.248h83.968C404.48 858.624 454.144 883.712 512 883.712s107.52-25.088 134.656-62.464h83.968v-62.464H824.32c69.12 0 124.928-55.808 124.928-124.928v-624.64c0-69.12-55.808-124.928-124.928-124.928zM668.16 758.784H599.04c0 34.816-38.912 62.464-87.04 62.464S424.96 793.6 424.96 758.784H355.84v-124.928h312.32V758.784z m208.384-135.168c0 34.304-28.16 62.464-62.464 62.464h-83.456v-114.688H293.376V686.08H209.92c-34.816 0-62.464-28.16-62.464-62.464v-604.16c0-34.816 28.16-62.464 62.464-62.464h604.16c34.816 0 62.464 28.16 62.464 62.464v604.16zM720.384 66.048H303.616c-18.432 0-33.28 14.848-33.28 33.28s14.848 33.28 33.28 33.28h416.768c18.432 0 33.28-14.848 33.28-33.28 0-17.92-14.848-33.28-33.28-33.28zM720.384 233.47199999999998H303.616c-18.432 0-33.28 14.848-33.28 33.28s14.848 33.28 33.28 33.28h416.768c18.432 0 33.28-14.848 33.28-33.28s-14.848-33.28-33.28-33.28zM720.384 400.384H303.616c-18.432 0-33.28 14.848-33.28 33.28s14.848 33.28 33.28 33.28h416.768c18.432 0 33.28-14.848 33.28-33.28s-14.848-33.28-33.28-33.28z"  horiz-adv-x="1024" />

    
    <glyph glyph-name="gclj" unicode="&#59466;" d="M322.048 794.624h229.376c27.136 0 49.664 22.528 49.664 49.664v2.048c0 27.136-22.528 49.664-49.664 49.664H322.048c-27.136 0-49.664-22.528-49.664-49.664v-2.048c0-27.648 22.528-49.664 49.664-49.664zM784.384 845.312h-153.088v-1.024c0-51.2-41.472-93.184-93.184-93.184H314.368c-51.2 0-93.184 41.472-93.184 93.184v1.024H68.096C30.72 845.312 0 814.592 0 776.704v-677.376c0-37.888 30.72-68.096 68.096-68.096h438.272c-18.432 35.84-29.184 76.8-29.184 119.808 0 11.776 1.024 23.04 2.56 34.304H171.008v61.952h325.12c38.4 98.304 133.632 167.424 245.76 167.424 39.936 0 77.312-9.216 111.104-24.576V776.704c-0.512 37.888-31.232 68.608-68.608 68.608z m-336.384-501.248H175.104V407.552h272.384v-63.488z m250.88 175.104H175.104V582.656h523.776v-63.488zM926.208 145.40800000000002c-0.512-25.088-6.656-53.248-17.408-74.752-12.8-26.624-27.136-44.032-49.152-62.976-38.4-33.28-95.744-46.592-145.408-36.352-28.16 5.632-49.152 15.872-73.216 33.28-6.144 4.608-18.432 15.872-26.112 24.576-9.216 10.24-14.848 18.432-22.528 32.256-12.288 21.504-19.968 49.664-20.992 74.24-0.512 7.168 0 14.336 0 21.504 0.512 8.704 0.512 8.704 2.048 15.872 1.024 6.656 3.072 13.824 4.608 20.48 1.024 3.072 2.048 6.656 3.072 9.728 0.512 1.024 4.608 11.776 3.072 8.192 17.408 40.448 44.544 69.632 80.896 90.624 35.328 19.968 79.36 26.112 117.76 17.92 41.984-8.704 74.752-29.184 102.912-61.952 9.728-11.264 24.064-35.84 29.184-49.664 4.096-10.752 7.168-22.016 9.216-33.28 1.536-6.656 1.536-8.704 2.048-12.288-0.512-5.12-0.512-11.264 0-17.408 0.512-41.472 64.512-41.472 64 0-2.048 129.024-105.472 235.52-234.496 241.664-63.488 3.072-125.44-22.528-171.52-65.024-46.592-42.496-73.216-102.912-77.312-164.864-4.608-63.488 20.992-125.952 62.464-173.056 41.984-47.104 101.888-74.24 164.352-79.872 63.488-5.632 125.952 18.944 174.08 59.904 48.128 41.472 75.264 101.376 81.92 163.328 0.512 6.144 1.024 11.776 1.024 17.92 0 41.472-64 41.472-64.512 0zM874.496-23.55200000000002l94.72-94.72c29.184-29.184 74.24 15.872 45.056 45.056l-94.72 94.72c-29.184 29.184-74.24-15.872-45.056-45.056z"  horiz-adv-x="1024" />

    
    <glyph glyph-name="htwd" unicode="&#59467;" d="M899.329238 762.428964H832.54372V851.431708C832.54372 876.058032 812.601751 896 788.109267 896h-667.855183C95.7616 896 75.819631 876.058032 75.819631 851.431708V50.13932799999998c0-24.626323 19.941968-44.568292 44.568292-44.568292h66.785518v-89.002744c0-24.626323 19.941968-44.568292 44.568292-44.568292H899.463077c24.626323 0 44.568292 19.941968 44.568291 44.568292V717.994511c-0.133839 24.492485-20.075807 44.434453-44.70213 44.434453z m-400.579271-11.108614c0 6.156581 4.952032 11.108613 11.108614 11.108614h222.573781c6.156581 0 11.108613-4.952032 11.108613-11.108614v-22.217226c0-6.156581-4.952032-11.108613-11.108613-11.108613H509.858581c-6.156581 0-11.108613 4.952032-11.108614 11.108613v22.217226z m-333.927591-178.005489c0 6.156581 4.952032 11.108613 11.108613 11.108613h556.501373c6.156581 0 11.108613-4.952032 11.108613-11.108613v-22.217227c0-6.156581-4.952032-11.108613-11.108613-11.108613H175.930989c-6.156581 0-11.108613 4.952032-11.108613 11.108613v22.217227z m0-200.356555c0 6.156581 4.952032 11.108613 11.108613 11.108613h556.501373c6.156581 0 11.108613-4.952032 11.108613-11.108613v-22.217226c0-6.156581-4.952032-11.108613-11.108613-11.108614H175.930989c-6.156581 0-11.108613 4.952032-11.108613 11.108614v22.217226z m11.108613-211.465168c-6.156581 0-11.108613 4.952032-11.108613 11.108613v22.217227c0 6.156581 4.952032 11.108613 11.108613 11.108613h556.501373c6.156581 0 11.108613-4.952032 11.108613-11.108613v-22.217227c0-6.156581-4.952032-11.108613-11.108613-11.108613H175.930989z m723.398249-200.356555c0-24.626323-19.941968-44.568292-44.568292-44.568291H276.176186c-24.626323 0-44.568292 19.941968-44.568292 44.568291v44.568292h556.501373c24.626323 0 44.568292 19.941968 44.568291 44.568292V717.994511h22.217227c24.626323 0 44.568292-19.941968 44.568292-44.568292l-0.133839-712.289636z"  horiz-adv-x="1024" />

    
    <glyph glyph-name="htyd" unicode="&#3716;" d="M640.368105 520.934902H383.631895c-30.251503 0-50.062222 19.810719-50.062222 50.062222s19.810719 50.062222 50.062222 50.062222h256.602353c30.251503 0 50.062222-19.810719 50.062223-50.062222 0.133856-29.716078-19.676863-50.062222-49.928366-50.062222z m0-195.430065H383.631895c-30.251503 0-50.062222 19.810719-50.062222 50.062222s19.810719 50.062222 50.062222 50.062222h256.602353c30.251503 0 50.062222-19.810719 50.062223-50.062222 0.133856-30.117647-19.676863-50.062222-49.928366-50.062222zM876.75817 808.056471v-813.845752L591.510588 134.22431400000005c-24.094118 12.047059-54.613333 18.070588-78.707451 18.070588s-54.613333-6.023529-78.707451-18.070588L148.714248-5.78928099999996v813.845752H876.75817M853.734902 896H170.800523c-62.51085 0-113.777778-51.266928-113.777778-113.643922v-853.467189c0-34.26719 28.645229-56.888889 56.888889-56.888889 5.621961 0 16.865882 0 22.487843 5.621961l347.08915 170.53281c5.621961 5.621961 16.865882 5.621961 22.487844 5.621961s16.865882 0 22.487843-5.621961l347.08915-170.53281c16.865882-5.621961 28.645229-5.621961 34.26719-5.621961 28.645229 0 56.888889 22.487843 56.888888 56.888889V782.356078C967.378824 844.733072 916.245752 896 853.734902 896z"  horiz-adv-x="1024" />

    
    <glyph glyph-name="rwhdt" unicode="&#59482;" d="M135.04 634.88v-627.84h878.72V634.88H135.04zM951.68 112L826.24 321.28l-142.08-118.4L574.72 384 197.76 69.75999999999999v502.4h753.28V112h0.64zM261.12 415.36c0 51.84 42.24 94.08 94.08 94.08s94.08-42.24 94.08-94.08-42.24-94.08-94.08-94.08-94.08 42.24-94.08 94.08z m627.84 345.6H9.6v-627.84h62.72V698.24h816v62.72z m0 0"  horiz-adv-x="1024" />

    
    <glyph glyph-name="sh" unicode="&#59483;" d="M903.168 761.344L537.088 892.416c-7.168 2.56-14.336 3.584-21.504 3.584h-7.68c-7.168 0-14.848-1.024-21.504-3.584L120.32 761.344c-25.088-9.216-42.496-33.28-42.496-59.904v-384c0.512-11.264 12.8-272.384 411.648-438.272 0 0 12.288-4.096 22.016-4.608h2.048c8.192 0 33.28 10.24 42.496 14.336 377.344 165.888 389.12 417.792 389.12 428.544V701.44c0.512 26.624-16.896 50.688-41.984 59.904z m-31.232-440.32c-0.512-9.216-16.384-225.792-359.936-369.664-181.248 76.288-269.824 172.544-311.808 240.128-43.52 70.656-48.128 124.928-48.128 129.024V690.1759999999999c0 1.024 0.512 2.048 1.536 2.56L506.88 819.2h9.216L870.4 692.736c1.024-0.512 1.536-1.024 1.536-2.56v-369.152zM563.2 588.288l-18.944-270.848c-1.024-17.92-16.896-31.744-34.816-30.208-16.384 1.024-29.184 14.336-30.208 30.208l-18.944 270.848c-2.048 28.672 19.456 53.76 48.128 55.296 28.672 2.048 53.76-19.456 55.296-48.128 0-2.56 0-5.12-0.512-7.168zM456.704 181.24800000000005c0-30.208 24.576-54.784 54.784-54.784 30.208 0 54.784 24.576 54.784 54.784 0 30.208-24.576 54.784-54.784 54.784s-54.784-24.576-54.784-54.784z"  horiz-adv-x="1024" />

    
    <glyph glyph-name="sjmxjs" unicode="&#59484;" d="M422.051567 154.32698300000004c-182.975458 0-331.417143 148.040129-331.417143 330.346328S239.076109 815.01964 422.051567 815.01964s331.283291-148.040129 331.283291-330.346329c0-182.440051-148.307833-330.346329-331.283291-330.346328z m574.224372-219.517009L715.454789 214.69416c68.933695 72.279991 111.364727 169.99183 111.364727 277.742558C826.819516 715.166171 645.584131 896 422.051567 896 198.251299 896 17.015915 715.300023 17.015915 492.302866c0-223.131009 181.235384-403.830986 405.035652-403.830986 88.877618 0 170.928793 29.045848 237.720859 77.500212L943.939871-117.25838999999996c14.455998-14.322146 37.746217-14.322146 52.202216 0 14.455998 14.455998 14.455998 37.478514 0.133852 52.068364z"  horiz-adv-x="1024" />

    
    <glyph glyph-name="yzsd" unicode="&#59485;" d="M400.896 28.159999999999968H177.152c-16.896 0-30.72 13.824-30.72 30.72V796.16c0 16.896 13.824 30.72 30.72 30.72h583.68c16.896 0 30.72-13.824 30.72-30.72v-261.12c0-16.896 13.824-30.72 30.72-30.72s30.72 13.824 30.72 30.72V796.16c0 50.688-41.472 92.16-92.16 92.16h-583.68c-50.688 0-92.16-41.472-92.16-92.16v-737.28c0-50.688 41.472-92.16 92.16-92.16h223.744c16.896 0 30.72 13.824 30.72 30.72s-13.824 30.72-30.72 30.72zM691.2 719.36H230.4c-16.896 0-30.72-13.824-30.72-30.72s13.824-30.72 30.72-30.72h460.8c16.896 0 30.72 13.824 30.72 30.72s-13.824 30.72-30.72 30.72z m0-153.6H230.4c-16.896 0-30.72-13.824-30.72-30.72s13.824-30.72 30.72-30.72h460.8c16.896 0 30.72 13.824 30.72 30.72s-13.824 30.72-30.72 30.72zM512 412.16H230.4c-16.896 0-30.72-13.824-30.72-30.72s13.824-30.72 30.72-30.72H512c16.896 0 30.72 13.824 30.72 30.72s-13.824 30.72-30.72 30.72z m374.272-473.6H587.264c-15.36 0-28.16-12.8-28.16-28.16s12.8-28.16 28.16-28.16h299.008c15.36 0 27.648 12.288 28.16 28.672 0 15.36-12.8 27.648-28.16 27.648z m-7.68 220.672h-58.88c-7.68 17.92 2.048 51.712 26.624 91.648l0.512 1.024v0.512c0.512 0.512 1.024 1.536 1.024 1.536 10.752 20.48 21.504 46.08 21.504 79.36 0 74.24-58.368 133.12-133.12 133.632h-1.024c-74.752-0.512-132.608-59.392-132.608-133.632 0-33.28 10.752-58.368 21.504-78.848 0.512-1.536 1.024-2.56 1.536-3.072l0.512-0.512c24.576-39.936 34.304-73.216 26.624-91.648h-58.88c-33.28 0-59.904-27.648-59.904-61.952v-98.816c0-13.824 11.264-25.088 25.088-25.088H913.92c13.824 0 24.576 11.264 24.576 24.576V97.27999999999997c0 34.304-26.624 61.952-59.904 61.952z m4.608-129.024H589.312V97.27999999999997c0 3.072 2.048 5.12 4.608 5.12h83.456l3.584 3.072c43.008 35.328 40.448 97.28-7.168 174.592-9.728 18.944-15.36 33.792-15.36 53.248 0 43.52 33.792 76.8 77.824 77.312 44.544-0.512 77.824-33.792 77.824-77.312 0-19.968-5.632-34.816-15.36-53.248-47.616-77.312-49.664-139.264-7.168-174.592l3.584-3.072h82.944c2.56 0 4.608-2.048 4.608-5.12v-67.072zM428.544 258.55999999999995H230.4c-16.896 0-30.72-13.824-30.72-30.72s13.824-30.72 30.72-30.72h198.144c16.896 0 30.72 13.824 30.72 30.72s-13.824 30.72-30.72 30.72z"  horiz-adv-x="1024" />

    
    <glyph glyph-name="yszlgl" unicode="&#59486;" d="M218.112 516.693v5.974c0 23.893 19.115 43.4 42.496 43.4h33.997c23.347 0 42.462-19.507 42.462-43.4v-6.264c0-23.978 5.973-26.248 29.354-26.248h296.022c21.674 0 23.859 2.986 23.859 22.954v9.609c0 23.893 19.063 43.383 42.445 43.383h33.075c23.33 0 42.445-19.507 42.445-43.4v-7.578c0-21.436 7.116-24.968 27.904-24.968h163.413c22.135-0.034 28.416 6.11 28.416 27.699v48.503c0 47.702-38.23 86.784-84.992 86.784H84.992C38.229 653.141 0 614.06 0 566.323v-45.448c0-24.491 7.083-30.754 33.28-30.754h154.368c24.798 0 30.464 2.679 30.464 26.572z m586.189-114.978v-9.216a43.093 43.093 0 0 0-42.445-43.452h-33.11a43.093 43.093 0 0 0-42.461 43.452v8.619c0 18.722-5.29 23.927-24.15 23.927h-294.57c-24.15 0-30.413-5.342-30.413-27v-5.563a43.093 43.093 0 0 0-42.496-43.417h-34.048a43.093 43.093 0 0 0-42.496 43.417v3.465c0 25.395-6.23 29.098-29.355 29.098H32.512C6.656 425.045 0 418.56 0 392.482v-433.664C0-88.952 38.23-128 84.992-128h854.016c46.763 0 84.992 39.049 84.992 86.818v440.2c0 19.508-8.14 25.993-26.112 25.993H833.365c-22.869 0.034-29.064-3.925-29.064-23.296zM309.845 429.056c0-23.381-14.302-42.496-31.744-42.496-17.459 0-31.744 19.115-31.744 42.496v52.19c0 23.415 14.302 42.53 31.744 42.53s31.744-19.115 31.744-42.53v-52.19z m467.661 0c0-23.381-14.25-42.496-31.693-42.496-17.459 0-31.744 19.115-31.744 42.496v52.19c0 23.415 14.285 42.53 31.744 42.53 17.442 0 31.693-19.115 31.693-42.53v-52.19zM333.602 698.539c27.273 73.779 97.075 126.293 178.859 126.293 81.8 0 151.603-52.48 178.824-126.293 0 0 5.752-24.32 39.51-24.32 33.706 0 33.621 24.32 33.621 24.32C734.72 812.237 633.173 896 512.478 896c-120.747 0-222.26-83.763-251.99-197.461 0 0-1.843-21.3 32.973-21.3 34.868 0 40.141 21.3 40.141 21.3z"  horiz-adv-x="1024" />

    
    <glyph glyph-name="ydzf" unicode="&#59487;" d="M517.12 8.70399999999995l-32.256-8.192v110.592h64V0l-31.744 8.704z m0 742.4c-17.92 0-32.256 14.336-32.256 32.256V846.848c0 17.92 14.336 31.744 32.256 31.744s32.256-14.336 32.256-31.744v-64c-0.512-17.408-14.848-31.744-32.256-31.744zM704-113.15200000000004c-3.072 0-6.144 0.512-9.216 1.536L517.12-56.831999999999994l-184.832-54.784c-16.896-5.12-34.816 4.608-39.936 21.504-5.12 16.896 4.608 34.816 21.504 39.936l194.56 57.856c6.144 1.536 12.288 1.536 18.432 0l186.88-57.856c16.896-5.12 26.624-23.04 21.504-39.936-4.608-13.824-16.896-23.04-31.232-23.04z m224.256 224.256H96.256C43.008 111.10400000000004 0 154.11199999999997 0 206.84799999999996v512c0 52.736 43.008 96.256 96.256 96.256h832c52.736 0 96.256-43.008 96.256-96.256v-512c-0.512-52.736-43.52-95.744-96.256-95.744zM96.256 751.104c-17.408 0-32.256-14.336-32.256-31.744v-512c0-17.408 14.336-32.256 32.256-32.256h832c17.408 0 32.256 14.336 32.256 32.256v512c0 17.408-14.336 31.744-32.256 31.744H96.256zM574.976 305.15200000000004L403.968 476.672l-167.936-167.936c-12.288-11.776-32.256-11.776-44.544 0-12.8 12.288-13.312 32.768-1.024 45.056l190.464 190.464c12.288 12.288 32.768 12.288 45.056 0l171.52-171.52 176.64 176.128c12.288 11.776 32.256 11.776 44.544 0 12.8-12.288 13.312-32.768 1.024-45.056l-199.168-199.168c-6.144-6.144-14.336-9.216-22.528-9.216-8.704 0.512-16.896 3.584-23.04 9.728z"  horiz-adv-x="1024" />

    
    <glyph glyph-name="zlyjfx" unicode="&#3717;" d="M1012.086797-9.671110999999996c-16.330458-28.912941-46.983529-46.715817-80.046013-46.715817H91.959216c-50.865359 0-91.959216 41.227712-91.959216 92.093072 0 16.732026 4.551111 33.19634 13.251765 47.518954L433.292549 779.946667c26.235817 43.503268 82.723137 57.55817 126.226405 31.322353 12.850196-7.76366 23.558693-18.472157 31.322353-31.322353l420.040785-696.721569c16.999739-28.511373 17.535163-63.983268 1.204705-92.896209z m-77.904313 73.219346L532.747712 729.482876c-6.960523 11.511634-21.818562 15.125752-33.196339 8.299085-3.346405-2.007843-6.157386-4.818824-8.299085-8.299085L89.817516 63.54823499999998c-6.960523-11.511634-3.212549-26.369673 8.299085-33.19634 3.747974-2.275556 8.031373-3.480261 12.448628-3.480261h802.869542c13.385621 0 24.227974 10.842353 24.227974 24.227974 0 4.283399-1.204706 8.566797-3.480261 12.448627z m-421.245491 30.519216c-26.369673 0-47.65281 21.416993-47.65281 47.65281s21.283137 47.65281 47.65281 47.652811c25.298824 0 46.983529-21.684706 46.98353-47.652811 0-25.43268-21.55085-47.65281-46.98353-47.65281z m-0.669281 138.005752c-19.810719 0-36.542745 8.031373-36.542745 27.17281 0 73.620915-8.700654 179.36732-8.700653 252.988235 0 24.094118 19.810719 37.747451 45.109542 37.747451 24.094118 0 44.574118-13.653333 44.574118-37.747451 0-73.620915-8.700654-179.36732-8.700654-252.988235 0.133856-19.141438-20.881569-27.17281-35.739608-27.17281z"  horiz-adv-x="1024" />

    
    <glyph glyph-name="zjyj" unicode="&#59498;" d="M910.083333 744.833333h-69.666666l0.166666 75.333334c0 39.166667-41.666667 71.166667-81 71.166666H113.75C74.583333 891.333333 42.75 859.333333 42.75 820.166667L42.583333 82.66666699999996c0-39.166667 31.833333-71.166667 71.166667-71.166667l89.833333-0.166667V-54c0-39.166667 31.833333-71.166667 71.166667-71.166667h635.5c39.166667 0 71.166667 31.833333 71.166667 71.166667V673.666667c-0.166667 39.166667-32 71.166667-71.333334 71.166666zM124.083333 84.33333300000004c-4.666667 0-8.333333 3.666667-8.333333 8.333334V810c0 4.666667 3.666667 8.333333 8.333333 8.333333h635.5c4.666667 0 8.333333-3.666667 8.333334-8.333333v-65.333333h-493.333334c-39.166667 0-71.166667-31.833333-71.166666-71.166667V84.33333300000004H124.083333z m784.333334-128.166666c0-4.666667-3.666667-8.333333-8.333334-8.333334l-615.5 0.166667c-4.666667 0-8.333333 3.666667-8.333333 8.333333l-0.166667 707.333334c0 4.666667 3.666667 8.333333 8.333334 8.333333l615.5-0.166667c4.666667 0 8.333333-3.666667 8.333333-8.333333l0.166667-707.333333zM416.916667 441.166667h351.833333c20.166667 0 36.333333 16.333333 36.333333 36.333333 0 20.166667-16.333333 36.333333-36.333333 36.333333H416.916667c-20.166667 0-36.333333-16.333333-36.333334-36.333333 0-20.166667 16.333333-36.333333 36.333334-36.333333z m352-91H416.916667c-20.166667 0-36.333333-16.333333-36.333334-36.333334s16.333333-36.333333 36.333334-36.333333h351.833333c20.166667 0 36.333333 16.333333 36.333333 36.333333s-16 36.333333-36.166666 36.333334z m-115.333334-170h-236.666666c-20.166667 0-36.333333-16.333333-36.333334-36.333334 0-20.166667 16.333333-36.333333 36.333334-36.333333h236.666666c20.166667 0 36.333333 16.333333 36.333334 36.333333 0.166667 20.166667-16.166667 36.333333-36.333334 36.333334z"  horiz-adv-x="1024" />

    
    </font>
</defs>
</svg>
